<svg width="39" height="43" viewBox="0 0 39 43" fill="none" xmlns="http://www.w3.org/2000/svg">
<ellipse cx="19.0496" cy="23.25" rx="19.0496" ry="19" fill="#5EB1A8"/>
<path d="M27.5902 33.25H10.7942V28.592L18.1042 22.336C18.7616 21.7693 19.3169 21.2593 19.7702 20.806C20.2236 20.33 20.5862 19.8767 20.8582 19.446C21.1529 18.9927 21.3569 18.5507 21.4702 18.12C21.6062 17.6893 21.6742 17.2247 21.6742 16.726V16.25C21.6742 15.7967 21.5836 15.4 21.4022 15.06C21.2209 14.72 20.9829 14.4367 20.6882 14.21C20.3936 13.9833 20.0536 13.8133 19.6682 13.7C19.3056 13.5867 18.9316 13.53 18.5462 13.53C17.9796 13.53 17.4809 13.6207 17.0502 13.802C16.6422 13.9833 16.2796 14.2327 15.9622 14.55C15.6676 14.8447 15.4182 15.196 15.2142 15.604C15.0102 15.9893 14.8516 16.4087 14.7382 16.862L10.2842 15.162C10.5562 14.346 10.9302 13.5753 11.4062 12.85C11.8822 12.102 12.4716 11.456 13.1742 10.912C13.8996 10.3453 14.7496 9.90333 15.7242 9.586C16.6989 9.26867 17.7982 9.11 19.0222 9.11C20.3142 9.11 21.4589 9.29133 22.4562 9.654C23.4536 10.0167 24.2923 10.5153 24.9723 11.15C25.6749 11.7847 26.2076 12.544 26.5702 13.428C26.9329 14.2893 27.1142 15.23 27.1142 16.25C27.1142 17.27 26.9442 18.1993 26.6042 19.038C26.2642 19.8767 25.7996 20.67 25.2103 21.418C24.6436 22.1433 23.9749 22.8347 23.2042 23.492C22.4336 24.1493 21.6289 24.818 20.7902 25.498L16.3702 28.966H27.5902V33.25Z" fill="white"/>
</svg>
