<svg width="39" height="42" viewBox="0 0 39 42" fill="none" xmlns="http://www.w3.org/2000/svg">
<ellipse cx="19.0496" cy="23" rx="19.0496" ry="19" fill="#5EB1A8"/>
<path d="M17.7642 18.652C19.0336 18.652 19.9516 18.414 20.5182 17.938C21.1076 17.4393 21.4022 16.8273 21.4022 16.102V15.864C21.4022 15.0027 21.1189 14.3113 20.5522 13.79C20.0082 13.2687 19.2262 13.008 18.2062 13.008C17.2542 13.008 16.3589 13.2573 15.5202 13.756C14.6816 14.232 13.9676 14.9233 13.3782 15.83L10.1822 12.838C10.6356 12.2487 11.1229 11.716 11.6442 11.24C12.1656 10.7413 12.7549 10.322 13.4122 9.982C14.0696 9.61933 14.8062 9.34733 15.6222 9.166C16.4382 8.962 17.3562 8.86 18.3762 8.86C19.6456 8.86 20.7902 9.00733 21.8102 9.302C22.8529 9.59667 23.7369 10.0273 24.4622 10.594C25.2102 11.138 25.7769 11.7953 26.1622 12.566C26.5702 13.3367 26.7742 14.198 26.7742 15.15C26.7742 15.898 26.6496 16.578 26.4002 17.19C26.1736 17.802 25.8449 18.3347 25.4142 18.788C25.0062 19.2413 24.5302 19.6153 23.9862 19.91C23.4422 20.182 22.8642 20.3747 22.2522 20.488V20.692C22.9549 20.828 23.6009 21.0547 24.1903 21.372C24.8022 21.6667 25.3236 22.052 25.7542 22.528C26.2076 23.004 26.5589 23.5707 26.8082 24.228C27.0576 24.8627 27.1823 25.588 27.1823 26.404C27.1823 27.4693 26.9669 28.4327 26.5363 29.294C26.1056 30.1553 25.4936 30.892 24.7002 31.504C23.9069 32.116 22.9549 32.592 21.8442 32.932C20.7336 33.2493 19.5096 33.408 18.1722 33.408C16.9709 33.408 15.9056 33.2833 14.9762 33.034C14.0469 32.7847 13.2309 32.456 12.5282 32.048C11.8482 31.6173 11.2476 31.13 10.7262 30.586C10.2276 30.042 9.78558 29.464 9.40025 28.852L13.1742 25.928C13.6956 26.9027 14.3302 27.7073 15.0782 28.342C15.8489 28.954 16.8802 29.26 18.1722 29.26C19.3282 29.26 20.2236 28.9767 20.8582 28.41C21.5156 27.8207 21.8442 27.0273 21.8442 26.03V25.826C21.8442 24.8513 21.4702 24.126 20.7222 23.65C19.9969 23.1513 18.9882 22.902 17.6962 22.902H15.5542V18.652H17.7642Z" fill="white"/>
</svg>
