<svg width="25" height="25" viewBox="0 0 25 25" fill="none" xmlns="http://www.w3.org/2000/svg">
<path d="M11.5569 0.257483C9.82237 0.434732 8.52387 0.794233 7.10087 1.49373C5.85037 2.10698 4.95912 2.73948 3.94337 3.72173C2.89887 4.74223 2.13687 5.79173 1.49012 7.10448C0.886369 8.34073 0.517369 9.55298 0.311369 10.9855C0.229869 11.551 0.229869 13.4387 0.311369 14.0042C0.651619 16.3807 1.57162 18.513 3.01862 20.2715C6.40137 24.3777 12.0074 25.844 16.9474 23.9177C20.1096 22.6815 22.6779 20.1085 23.9236 16.927C24.4316 15.619 24.6904 14.3637 24.7429 12.9022C24.8579 9.58648 23.6264 6.39073 21.3074 3.99498C20.2531 2.90723 19.2231 2.15498 17.8814 1.49873C16.6739 0.904484 15.5624 0.554733 14.2159 0.348734C13.7324 0.276733 11.9739 0.214483 11.5569 0.257483ZM18.6771 7.43048C18.7921 7.49273 18.9551 7.63648 19.0316 7.74673C19.1561 7.92398 19.1754 7.99098 19.1754 8.26898C19.1754 8.50848 19.1514 8.62823 19.0796 8.73848C18.9166 8.99248 11.3989 17.3487 11.2074 17.4877C10.9919 17.6505 10.6756 17.6985 10.3831 17.622C10.1866 17.5692 9.96137 17.3585 8.06412 15.4755C6.65537 14.0715 5.93662 13.3192 5.87437 13.19C5.66362 12.7347 5.86962 12.179 6.33437 11.9297C6.51637 11.8387 6.96212 11.834 7.13462 11.925C7.20662 11.9632 8.02587 12.7395 8.95537 13.65L10.6466 15.303L13.9286 11.6467C17.8241 7.30098 17.6996 7.43523 17.9104 7.37773C18.1931 7.29623 18.4519 7.31548 18.6771 7.43048Z" fill="#5EB1A8"/>
</svg>
