<svg width="41" height="42" viewBox="0 0 41 42" fill="none" xmlns="http://www.w3.org/2000/svg">
<path d="M25.8714 11.1562H25.2404V10.5L25.8714 11.1562Z" fill="#8D88FA"/>
<path d="M34.7055 13.6146C34.7055 19.6629 30.4693 24.2842 24.8346 25.0821C24.3854 25.1461 24.213 25.1801 23.4726 25.2918C22.663 25.4143 18.9752 25.7411 16.1729 29.9118C14.0156 33.1211 14.2611 35.5311 13.8067 36.8927C13.2034 38.7173 11.5397 40.0312 9.58488 40.0312C8.30514 40.0312 7.14555 39.4648 6.33723 38.5662C6.1753 38.4205 5.67908 37.82 5.67908 36.92V35.3228C5.67908 34.0783 5.79791 32.8624 6.02382 31.6873C7.23696 25.2877 11.592 20.0687 17.3455 17.8506H17.3521C18.0742 17.5674 18.8238 17.3386 19.5864 17.1589V20.5942L23.2846 18.2795L25.5985 16.828H25.605L26.2815 16.3991L27.6866 15.5209L30.7292 13.6133L26.3415 10.8628H26.2815V10.8219L19.5864 6.62682V10.8642H13.0415C11.2524 10.8642 9.4112 11.2999 7.91339 12.0801V4.29847C7.91339 3.01311 8.91367 1.96875 10.1464 1.96875H23.5431C29.708 1.96875 34.7055 7.18645 34.7055 13.6146Z" fill="url(#paint0_linear_7_321)"/>
<path d="M25.8714 11.1562H25.2404V10.5L25.8714 11.1562Z" fill="#8D88FA"/>
<path d="M30.9195 13.5936L19.6914 20.6178V17.1611C18.923 17.342 18.169 17.5722 17.44 17.8571H17.4334C11.6359 20.0889 7.24755 25.3403 6.02514 31.7795C5.79882 32.9618 5.67908 34.1853 5.67908 35.4375V14.7553C5.67908 14.3306 5.78566 13.9347 5.97909 13.5936C6.16067 13.2538 6.462 12.6729 7.92916 11.9194C9.14368 11.296 11.2859 10.8261 13.4991 10.8261H19.6914V6.5625L30.9195 13.5936Z" fill="url(#paint1_linear_7_321)"/>
<defs>
<linearGradient id="paint0_linear_7_321" x1="27.3098" y1="1.39017" x2="-0.72281" y2="40.1488" gradientUnits="userSpaceOnUse">
<stop stop-color="#9977FA"/>
<stop offset="1" stop-color="#0144F8"/>
</linearGradient>
<linearGradient id="paint1_linear_7_321" x1="3.77127" y1="29.7039" x2="23.5047" y2="9.63638" gradientUnits="userSpaceOnUse">
<stop stop-color="#2BBAE3"/>
<stop offset="1" stop-color="#56F3CE"/>
</linearGradient>
</defs>
</svg>
