<svg width="274" height="96" viewBox="0 0 274 96" fill="none" xmlns="http://www.w3.org/2000/svg">
<g clip-path="url(#clip0_8_987)">
<path d="M269.717 1.10107H5.04881C3.15661 1.10107 1.62268 2.62543 1.62268 4.50581V91.3266C1.62268 93.2069 3.15661 94.7313 5.04881 94.7313H269.717C271.61 94.7313 273.143 93.2069 273.143 91.3266V4.50581C273.143 2.62543 271.61 1.10107 269.717 1.10107Z" fill="white" stroke="#EEEEEE" stroke-width="2"/>
<path d="M30.8255 79.3035H260.092" stroke="black"/>
<path d="M30.8255 81.2186V79.3035" stroke="black"/>
<path d="M25.6792 85.3682V82.3425H26.6745C27.005 82.3425 27.2531 82.4104 27.419 82.5462C27.5863 82.6819 27.67 82.8828 27.67 83.1488C27.67 83.2901 27.6296 83.4155 27.5487 83.5249C27.4679 83.633 27.3577 83.7168 27.2183 83.7764C27.3828 83.8221 27.5124 83.9093 27.6072 84.0382C27.7034 84.1656 27.7515 84.3181 27.7515 84.4954C27.7515 84.7669 27.663 84.9803 27.4859 85.1355C27.3089 85.2906 27.0587 85.3682 26.7352 85.3682H25.6792ZM26.0807 83.953V85.0419H26.7436C26.9304 85.0419 27.0775 84.9941 27.1849 84.8985C27.2936 84.8015 27.3479 84.6686 27.3479 84.4995C27.3479 84.1352 27.1485 83.953 26.7498 83.953H26.0807ZM26.0807 83.633H26.6871C26.8628 83.633 27.0028 83.5894 27.1074 83.502C27.2134 83.4148 27.2664 83.2963 27.2664 83.1467C27.2664 82.9804 27.2176 82.8599 27.12 82.7851C27.0224 82.7089 26.8739 82.6709 26.6745 82.6709H26.0807V83.633ZM29.2258 85.4099C28.9191 85.4099 28.6695 85.31 28.4771 85.1105C28.2847 84.9097 28.1885 84.6415 28.1885 84.3062V84.2356C28.1885 84.0126 28.2311 83.8137 28.3162 83.6393C28.4026 83.4632 28.5224 83.3261 28.6758 83.2278C28.8305 83.128 28.9978 83.0782 29.1777 83.0782C29.4718 83.0782 29.7005 83.1744 29.8636 83.367C30.0267 83.5596 30.1082 83.8353 30.1082 84.1941V84.3541H28.5754C28.581 84.5757 28.6458 84.7552 28.7699 84.8923C28.8954 85.0281 29.0543 85.096 29.2467 85.096C29.3833 85.096 29.499 85.0682 29.5938 85.0128C29.6886 84.9574 29.7716 84.884 29.8427 84.7925L30.079 84.9754C29.8894 85.2649 29.605 85.4099 29.2258 85.4099ZM29.1777 83.394C29.0215 83.394 28.8905 83.4508 28.7845 83.5644C28.6786 83.6766 28.613 83.8345 28.5879 84.0382H29.7214V84.0091C29.7103 83.8137 29.6572 83.6627 29.5624 83.5561C29.4677 83.448 29.3394 83.394 29.1777 83.394ZM30.7481 85.3682V83.4168H30.3905V83.1197H30.7481V82.889C30.7481 82.648 30.813 82.4616 30.9426 82.33C31.0722 82.1984 31.2556 82.1326 31.4925 82.1326C31.5818 82.1326 31.6704 82.1444 31.7581 82.1679L31.7372 82.4796C31.6717 82.4672 31.602 82.461 31.5282 82.461C31.4027 82.461 31.3057 82.4976 31.2375 82.5711C31.1691 82.6431 31.135 82.747 31.135 82.8828V83.1197H31.618V83.4168H31.135V85.3682H30.7481ZM31.9443 84.2232C31.9443 84.0029 31.9874 83.8047 32.0739 83.6288C32.1617 83.4528 32.283 83.3171 32.4378 83.2215C32.5939 83.1259 32.7717 83.0782 32.971 83.0782C33.2791 83.0782 33.5279 83.1841 33.7175 83.3961C33.9086 83.608 34.0041 83.8899 34.0041 84.2419V84.2689C34.0041 84.4878 33.9615 84.6845 33.8764 84.8591C33.7928 85.0322 33.6722 85.1673 33.5147 85.2643C33.3586 85.3613 33.1787 85.4099 32.9752 85.4099C32.6685 85.4099 32.4196 85.3037 32.2286 85.0918C32.0391 84.8799 31.9443 84.5993 31.9443 84.2501V84.2232ZM32.3332 84.2689C32.3332 84.5183 32.391 84.7185 32.5068 84.8695C32.6238 85.0205 32.78 85.096 32.9752 85.096C33.1718 85.096 33.3279 85.0198 33.4436 84.8673C33.5593 84.7136 33.6172 84.4989 33.6172 84.2232C33.6172 83.9766 33.5579 83.7771 33.4394 83.6247C33.3223 83.4709 33.1662 83.394 32.971 83.394C32.78 83.394 32.626 83.4695 32.5089 83.6205C32.3918 83.7715 32.3332 83.9876 32.3332 84.2689ZM35.5828 83.4647C35.5243 83.455 35.4608 83.4501 35.3926 83.4501C35.1388 83.4501 34.9666 83.5575 34.876 83.7722V85.3682H34.4892V83.1197H34.8656L34.8719 83.3795C34.9987 83.1786 35.1785 83.0782 35.4113 83.0782C35.4866 83.0782 35.5438 83.0879 35.5828 83.1073V83.4647ZM36.8376 85.4099C36.5308 85.4099 36.2813 85.31 36.0889 85.1105C35.8965 84.9097 35.8003 84.6415 35.8003 84.3062V84.2356C35.8003 84.0126 35.8429 83.8137 35.9279 83.6393C36.0143 83.4632 36.1343 83.3261 36.2876 83.2278C36.4423 83.128 36.6096 83.0782 36.7894 83.0782C37.0836 83.0782 37.3122 83.1744 37.4753 83.367C37.6384 83.5596 37.72 83.8353 37.72 84.1941V84.3541H36.1872C36.1928 84.5757 36.2576 84.7552 36.3817 84.8923C36.5071 85.0281 36.6661 85.096 36.8584 85.096C36.9951 85.096 37.1108 85.0682 37.2056 85.0128C37.3003 84.9574 37.3833 84.884 37.4544 84.7925L37.6907 84.9754C37.5011 85.2649 37.2167 85.4099 36.8376 85.4099ZM36.7894 83.394C36.6333 83.394 36.5022 83.4508 36.3963 83.5644C36.2903 83.6766 36.2248 83.8345 36.1998 84.0382H37.3331V84.0091C37.322 83.8137 37.269 83.6627 37.1742 83.5561C37.0794 83.448 36.9511 83.394 36.7894 83.394ZM19.4204 88.3959C19.4204 88.0826 19.4622 87.7821 19.5459 87.4944C19.6309 87.2059 19.7571 86.9437 19.9244 86.7088C20.0917 86.473 20.2652 86.307 20.4451 86.21L20.5246 86.4637C20.321 86.6186 20.1537 86.8552 20.0226 87.1744C19.893 87.4927 19.8219 87.8494 19.8093 88.2443L19.8073 88.4205C19.8073 88.9559 19.9055 89.4198 20.1021 89.8131C20.2207 90.0489 20.3614 90.2327 20.5246 90.3663L20.4451 90.6004C20.2596 90.4983 20.0826 90.3263 19.9139 90.0855C19.5849 89.6147 19.4204 89.0513 19.4204 88.3959ZM22.8541 89.6241H20.8591V89.3475L21.9131 88.1839C22.0692 88.0077 22.1765 87.8656 22.235 87.7558C22.295 87.6451 22.325 87.531 22.325 87.4127C22.325 87.2553 22.2769 87.1259 22.1807 87.0246C22.0846 86.9233 21.9562 86.8731 21.7959 86.8731C21.6035 86.8731 21.4537 86.9276 21.3463 87.0365C21.2404 87.1446 21.1874 87.2961 21.1874 87.4902H20.8005C20.8005 87.2118 20.8905 86.9863 21.0703 86.8143C21.2516 86.6424 21.4935 86.5564 21.7959 86.5564C22.0789 86.5564 22.3027 86.6313 22.4672 86.7794C22.6317 86.9259 22.7139 87.1225 22.7139 87.3676C22.7139 87.6655 22.5229 88.0196 22.141 88.4316L21.3254 89.31H22.8541V89.6241ZM25.1062 89.0606L25.6332 87.3753H26.0472L25.1376 89.9714C24.9968 90.3451 24.773 90.5323 24.4663 90.5323L24.3932 90.5264L24.2488 90.4991V90.1876L24.3534 90.1953C24.4845 90.1953 24.5862 90.1689 24.6587 90.117C24.7326 90.0642 24.7933 89.968 24.8406 89.8275L24.9264 89.5994L24.1192 87.3753H24.5416L25.1062 89.0606ZM27.304 89.6658C26.9973 89.6658 26.7478 89.5662 26.5554 89.3662C26.363 89.1653 26.2668 88.8972 26.2668 88.5618V88.4912C26.2668 88.2682 26.3093 88.0698 26.3944 87.8954C26.4808 87.7192 26.6007 87.5821 26.754 87.4834C26.9088 87.3838 27.0761 87.3344 27.256 87.3344C27.5501 87.3344 27.7787 87.4306 27.9418 87.623C28.1049 87.8153 28.1865 88.0911 28.1865 88.4503V88.6103H26.6536C26.6592 88.8317 26.724 89.0113 26.8482 89.1483C26.9736 89.2836 27.1325 89.3517 27.3249 89.3517C27.4615 89.3517 27.5772 89.3245 27.6721 89.2692C27.7669 89.213 27.8498 89.1398 27.9209 89.0487L28.1572 89.2317C27.9676 89.5211 27.6832 89.6658 27.304 89.6658ZM27.256 87.6502C27.0998 87.6502 26.9688 87.7064 26.8628 87.8204C26.7569 87.9328 26.6913 88.0903 26.6662 88.2946H27.7996V88.2648C27.7885 88.0698 27.7355 87.9183 27.6407 87.8119C27.5459 87.7038 27.4177 87.6502 27.256 87.6502ZM30.0329 89.6241C30.0106 89.5799 29.9925 89.5007 29.9786 89.3875C29.7987 89.573 29.5841 89.6658 29.3345 89.6658C29.1115 89.6658 28.9282 89.6037 28.7845 89.4786C28.6423 89.3526 28.5712 89.1934 28.5712 89.001C28.5712 88.767 28.6605 88.5848 28.8389 88.4563C29.0188 88.3261 29.2711 88.2605 29.5959 88.2605H29.9723V88.0843C29.9723 87.9498 29.9318 87.8434 29.851 87.7643C29.7701 87.6843 29.651 87.6434 29.4935 87.6434C29.3554 87.6434 29.2397 87.6783 29.1463 87.7472C29.0529 87.817 29.0062 87.9005 29.0062 87.9992H28.6172C28.6172 87.8868 28.657 87.7787 28.7365 87.6749C28.8173 87.5693 28.926 87.4868 29.0626 87.4255C29.2007 87.3642 29.352 87.3344 29.5164 87.3344C29.7772 87.3344 29.9814 87.3991 30.1291 87.5293C30.2769 87.6579 30.3536 87.8366 30.3592 88.0639V89.0981C30.3592 89.3049 30.3856 89.4692 30.4387 89.5909V89.6241H30.0329ZM29.3909 89.3313C29.5122 89.3313 29.6273 89.2998 29.736 89.2377C29.8447 89.1755 29.9235 89.0938 29.9723 88.9942V88.5329H29.6691C29.1951 88.5329 28.9581 88.6708 28.9581 88.9466C28.9581 89.0674 28.9986 89.1611 29.0794 89.2292C29.1603 89.2973 29.2641 89.3313 29.3909 89.3313ZM32.0593 87.7209C32.0007 87.7106 31.9373 87.7064 31.869 87.7064C31.6153 87.7064 31.4431 87.8136 31.3525 88.0281V89.6241H30.9656V87.3753H31.342L31.3483 87.6357C31.4751 87.4349 31.655 87.3344 31.8878 87.3344C31.9631 87.3344 32.0202 87.3438 32.0593 87.3634V87.7209ZM33.7342 89.0274C33.7342 88.9236 33.6945 88.8436 33.6151 88.7865C33.537 88.7287 33.3997 88.6784 33.2031 88.6367C33.008 88.5959 32.8525 88.5457 32.7368 88.4878C32.6225 88.429 32.5374 88.3601 32.4817 88.2792C32.4274 88.1992 32.4001 88.1039 32.4001 87.9924C32.4001 87.8085 32.4782 87.6528 32.6344 87.5251C32.7919 87.3974 32.9926 87.3344 33.2366 87.3344C33.4931 87.3344 33.7008 87.4 33.8597 87.5319C34.0201 87.663 34.1002 87.8315 34.1002 88.0367H33.7113C33.7113 87.9311 33.666 87.84 33.5754 87.7643C33.4861 87.6877 33.3732 87.6502 33.2366 87.6502C33.0958 87.6502 32.9856 87.68 32.9062 87.7413C32.8268 87.8026 32.787 87.8817 32.787 87.9805C32.787 88.0733 32.8239 88.1431 32.8978 88.1899C32.9717 88.2375 33.1049 88.2826 33.2972 88.3252C33.491 88.3686 33.6478 88.4197 33.7677 88.4793C33.8877 88.5388 33.9761 88.6103 34.0334 88.6955C34.0919 88.778 34.1211 88.8802 34.1211 89.001C34.1211 89.2019 34.0403 89.3628 33.8786 89.4845C33.7169 89.6054 33.507 89.6658 33.2491 89.6658C33.0679 89.6658 32.9076 89.6335 32.7682 89.5705C32.6287 89.5066 32.5193 89.4173 32.4399 89.3041C32.3618 89.1892 32.3228 89.0649 32.3228 88.9321H32.7096C32.7166 89.0606 32.7682 89.1636 32.8644 89.2394C32.9619 89.3143 33.0902 89.3517 33.2491 89.3517C33.3955 89.3517 33.5126 89.3228 33.6005 89.2649C33.6897 89.2053 33.7342 89.1262 33.7342 89.0274ZM37.0843 89.6241C37.062 89.5799 37.0439 89.5007 37.0299 89.3875C36.8501 89.573 36.6354 89.6658 36.3858 89.6658C36.1628 89.6658 35.9795 89.6037 35.8358 89.4786C35.6937 89.3526 35.6226 89.1934 35.6226 89.001C35.6226 88.767 35.7118 88.5848 35.8902 88.4563C36.0701 88.3261 36.3224 88.2605 36.6472 88.2605H37.0237V88.0843C37.0237 87.9498 36.9832 87.8434 36.9024 87.7643C36.8215 87.6843 36.7023 87.6434 36.5448 87.6434C36.4068 87.6434 36.2911 87.6783 36.1976 87.7472C36.1043 87.817 36.0575 87.9005 36.0575 87.9992H35.6686C35.6686 87.8868 35.7083 87.7787 35.7878 87.6749C35.8686 87.5693 35.9773 87.4868 36.114 87.4255C36.252 87.3642 36.4033 87.3344 36.5677 87.3344C36.8285 87.3344 37.0327 87.3991 37.1805 87.5293C37.3283 87.6579 37.4049 87.8366 37.4105 88.0639V89.0981C37.4105 89.3049 37.437 89.4692 37.49 89.5909V89.6241H37.0843ZM36.4423 89.3313C36.5636 89.3313 36.6786 89.2998 36.7874 89.2377C36.8961 89.1755 36.9749 89.0938 37.0237 88.9942V88.5329H36.7205C36.2465 88.5329 36.0095 88.6708 36.0095 88.9466C36.0095 89.0674 36.0499 89.1611 36.1307 89.2292C36.2116 89.2973 36.3154 89.3313 36.4423 89.3313ZM37.9249 88.481C37.9249 88.1303 38.0065 87.8519 38.1696 87.646C38.3327 87.4383 38.5488 87.3344 38.8179 87.3344C39.0939 87.3344 39.3092 87.4315 39.464 87.6247L39.4829 87.3753H39.8363V89.5705C39.8363 89.8607 39.7491 90.0906 39.5749 90.2582C39.402 90.4259 39.1691 90.5093 38.8764 90.5093C38.7133 90.5093 38.5537 90.4744 38.3976 90.4055C38.2414 90.3366 38.1222 90.2412 38.04 90.1204L38.2407 89.8897C38.4065 90.094 38.6095 90.1953 38.8492 90.1953C39.0374 90.1953 39.1838 90.1433 39.2883 90.0378C39.3943 89.9322 39.4473 89.7841 39.4473 89.5926V89.3994C39.2925 89.5773 39.0813 89.6658 38.8137 89.6658C38.5488 89.6658 38.3341 89.5594 38.1696 89.3475C38.0065 89.1355 37.9249 88.847 37.9249 88.481ZM38.3139 88.5244C38.3139 88.778 38.3661 88.9781 38.4707 89.1236C38.5753 89.2675 38.7217 89.3398 38.9098 89.3398C39.1538 89.3398 39.333 89.2292 39.4473 89.0087V87.9822C39.3288 87.7677 39.151 87.6604 38.914 87.6604C38.7259 87.6604 38.5788 87.7328 38.4728 87.8783C38.3669 88.0239 38.3139 88.2392 38.3139 88.5244ZM40.3193 88.4793C40.3193 88.2588 40.3625 88.0605 40.4489 87.8851C40.5367 87.7089 40.658 87.5728 40.8128 87.4774C40.9689 87.3821 41.1467 87.3344 41.3461 87.3344C41.6542 87.3344 41.903 87.44 42.0925 87.6519C42.2836 87.8639 42.3791 88.1456 42.3791 88.498V88.5244C42.3791 88.744 42.3366 88.9406 42.2515 89.1151C42.1678 89.2879 42.0472 89.4232 41.8897 89.5203C41.7336 89.6173 41.5538 89.6658 41.3502 89.6658C41.0436 89.6658 40.7946 89.5594 40.6037 89.3475C40.4141 89.1355 40.3193 88.8555 40.3193 88.5065V88.4793ZM40.7082 88.5244C40.7082 88.7738 40.7661 88.9747 40.8818 89.1253C40.9989 89.276 41.1551 89.3517 41.3502 89.3517C41.5468 89.3517 41.7029 89.276 41.8186 89.1236C41.9343 88.9696 41.9922 88.7551 41.9922 88.4793C41.9922 88.2324 41.933 88.0332 41.8144 87.8809C41.6973 87.7268 41.5412 87.6502 41.3461 87.6502C41.1551 87.6502 41.001 87.7251 40.8839 87.8766C40.7668 88.0273 40.7082 88.2435 40.7082 88.5244ZM43.7571 88.4171C43.7571 88.7253 43.716 89.0223 43.6338 89.3058C43.5529 89.5884 43.4281 89.8497 43.2594 90.0897C43.0921 90.3289 42.9164 90.5 42.7325 90.6004L42.6509 90.3663C42.8656 90.2029 43.0378 89.9493 43.1674 89.6054C43.2985 89.2607 43.3654 88.8785 43.3682 88.458V88.3916C43.3682 88.1005 43.3375 87.8307 43.2762 87.5813C43.2149 87.331 43.1291 87.1063 43.019 86.908C42.9102 86.7096 42.7875 86.5556 42.6509 86.4449L42.7325 86.21C42.9164 86.3113 43.0914 86.4798 43.2573 86.7165C43.4246 86.9539 43.5494 87.2153 43.6316 87.5004C43.7153 87.7855 43.7571 88.0911 43.7571 88.4171Z" fill="black"/>
<path d="M260.092 81.2186V79.3035" stroke="black"/>
<path d="M255.633 85.3682H255.229L253.697 83.0366V85.3682H253.293V82.3425H253.697L255.233 84.6846V82.3425H255.633V85.3682ZM256.183 84.2232C256.183 84.0029 256.226 83.8048 256.313 83.6288C256.401 83.4529 256.522 83.3171 256.677 83.2215C256.832 83.126 257.011 83.0782 257.209 83.0782C257.518 83.0782 257.767 83.1842 257.956 83.3961C258.147 83.6081 258.243 83.89 258.243 84.242V84.2689C258.243 84.4879 258.2 84.6846 258.116 84.8591C258.032 85.0323 257.911 85.1674 257.753 85.2643C257.597 85.3613 257.418 85.41 257.214 85.41C256.907 85.41 256.659 85.3038 256.468 85.0919C256.277 84.8799 256.183 84.5994 256.183 84.2502V84.2232ZM256.572 84.2689C256.572 84.5183 256.63 84.7185 256.745 84.8695C256.862 85.0205 257.018 85.096 257.214 85.096C257.411 85.096 257.567 85.0198 257.682 84.8674C257.798 84.7137 257.856 84.4989 257.856 84.2232C257.856 83.9766 257.797 83.7771 257.678 83.6248C257.561 83.4709 257.405 83.3941 257.209 83.3941C257.018 83.3941 256.865 83.4696 256.748 83.6206C256.63 83.7716 256.572 83.9877 256.572 84.2689ZM260.731 84.8383L261.167 83.1197H261.553L260.894 85.3682H260.581L260.031 83.6642L259.495 85.3682H259.182L258.525 83.1197H258.91L259.355 84.803L259.883 83.1197H260.194L260.731 84.8383Z" fill="black"/>
<path d="M30.8255 28.2327V79.3037" stroke="black"/>
<path d="M28.5253 79.3035H30.8256" stroke="black"/>
<path d="M26.3654 78.4386C26.3654 78.8889 26.2881 79.2234 26.1333 79.4424C25.9786 79.6612 25.7367 79.7707 25.4077 79.7707C25.0828 79.7707 24.8424 79.664 24.6863 79.4507C24.5301 79.2359 24.4493 78.9159 24.4437 78.4906V77.9773C24.4437 77.5325 24.521 77.2021 24.6758 76.986C24.8305 76.7699 25.0732 76.6619 25.4035 76.6619C25.7311 76.6619 25.9724 76.7665 26.127 76.9756C26.2818 77.1835 26.3613 77.5049 26.3654 77.9398V78.4386ZM25.9786 77.9129C25.9786 77.5873 25.9326 77.3504 25.8405 77.2021C25.7485 77.0526 25.6028 76.9777 25.4035 76.9777C25.2056 76.9777 25.0613 77.0519 24.9706 77.2001C24.88 77.3483 24.8333 77.5762 24.8305 77.8837V78.4989C24.8305 78.8258 24.878 79.0676 24.9728 79.2241C25.069 79.3793 25.2139 79.4569 25.4077 79.4569C25.5987 79.4569 25.7402 79.3835 25.8322 79.2366C25.9256 79.0898 25.9744 78.8584 25.9786 78.5426V77.9129Z" fill="black"/>
<path d="M28.5253 66.5359H30.8256" stroke="black"/>
<path d="M20.9183 66.9615H20.5293V64.3992L19.7494 64.6839V64.3349L20.8577 63.9213H20.9183V66.9615ZM23.961 65.6711C23.961 66.1213 23.8835 66.4558 23.7288 66.6748C23.5741 66.8936 23.3322 67.0031 23.0032 67.0031C22.6784 67.0031 22.4379 66.8964 22.2817 66.6831C22.1256 66.4684 22.0447 66.1483 22.0392 65.723V65.2097C22.0392 64.765 22.1166 64.4345 22.2713 64.2184C22.4261 64.0023 22.6686 63.8943 22.999 63.8943C23.3266 63.8943 23.5678 63.9989 23.7226 64.208C23.8773 64.4159 23.9568 64.7373 23.961 65.1723V65.6711ZM23.5741 65.1453C23.5741 64.8197 23.5281 64.5828 23.4361 64.4345C23.3441 64.285 23.1984 64.2102 22.999 64.2102C22.801 64.2102 22.6568 64.2843 22.5662 64.4325C22.4756 64.5808 22.4288 64.8086 22.4261 65.1162V65.7313C22.4261 66.0583 22.4734 66.3 22.5682 66.4565C22.6644 66.6117 22.8094 66.6893 23.0032 66.6893C23.1942 66.6893 23.3357 66.6159 23.4277 66.469C23.5211 66.3222 23.5699 66.0909 23.5741 65.775V65.1453ZM26.3658 65.6711C26.3658 66.1213 26.2884 66.4558 26.1336 66.6748C25.9789 66.8936 25.737 67.0031 25.408 67.0031C25.0832 67.0031 24.8427 66.8964 24.6865 66.6831C24.5305 66.4684 24.4495 66.1483 24.444 65.723V65.2097C24.444 64.765 24.5214 64.4345 24.6761 64.2184C24.8309 64.0023 25.0734 63.8943 25.4038 63.8943C25.7314 63.8943 25.9726 63.9989 26.1274 64.208C26.2821 64.4159 26.3616 64.7373 26.3658 65.1723V65.6711ZM25.9789 65.1453C25.9789 64.8197 25.9329 64.5828 25.8409 64.4345C25.7489 64.285 25.6032 64.2102 25.4038 64.2102C25.2058 64.2102 25.0616 64.2843 24.971 64.4325C24.8804 64.5808 24.8337 64.8086 24.8309 65.1162V65.7313C24.8309 66.0583 24.8782 66.3 24.973 66.4565C25.0692 66.6117 25.2142 66.6893 25.408 66.6893C25.599 66.6893 25.7405 66.6159 25.8325 66.469C25.9259 66.3222 25.9747 66.0909 25.9789 65.775V65.1453Z" fill="black"/>
<path d="M28.5253 53.7681H30.8256" stroke="black"/>
<path d="M21.6419 54.1937H19.6469V53.9173L20.7009 52.7536C20.857 52.5776 20.9644 52.435 21.023 52.3255C21.0829 52.2147 21.1129 52.1004 21.1129 51.9826C21.1129 51.8247 21.0648 51.6951 20.9686 51.594C20.8724 51.4929 20.7442 51.4423 20.5838 51.4423C20.3914 51.4423 20.2415 51.4971 20.1342 51.6064C20.0283 51.7145 19.9752 51.8655 19.9752 52.0595H19.5884C19.5884 51.781 19.6784 51.5559 19.8582 51.3841C20.0394 51.2123 20.2813 51.1265 20.5838 51.1265C20.8668 51.1265 21.0905 51.2006 21.2551 51.3488C21.4195 51.4956 21.5018 51.6916 21.5018 51.9369C21.5018 52.2348 21.3108 52.5894 20.9288 53.0009L20.1133 53.8799H21.6419V54.1937ZM23.961 52.9032C23.961 53.3535 23.8836 53.688 23.7289 53.9069C23.5741 54.1258 23.3323 54.2352 23.0033 54.2352C22.6785 54.2352 22.438 54.1286 22.2818 53.9153C22.1257 53.7005 22.0448 53.3805 22.0392 52.9551V52.4419C22.0392 51.9971 22.1166 51.6667 22.2714 51.4506C22.4261 51.2345 22.6687 51.1265 22.9991 51.1265C23.3267 51.1265 23.5679 51.2311 23.7226 51.4402C23.8774 51.6481 23.9568 51.9695 23.961 52.4044V52.9032ZM23.5741 52.3774C23.5741 52.0519 23.5281 51.815 23.4362 51.6667C23.3441 51.5172 23.1985 51.4423 22.9991 51.4423C22.8011 51.4423 22.6568 51.5165 22.5662 51.6647C22.4756 51.8129 22.4289 52.0408 22.4261 52.3483V52.9635C22.4261 53.2904 22.4735 53.5322 22.5683 53.6887C22.6645 53.8439 22.8095 53.9215 23.0033 53.9215C23.1943 53.9215 23.3358 53.848 23.4278 53.7012C23.5211 53.5544 23.5699 53.323 23.5741 53.0072V52.3774ZM26.3658 52.9032C26.3658 53.3535 26.2884 53.688 26.1337 53.9069C25.9789 54.1258 25.7371 54.2352 25.4081 54.2352C25.0833 54.2352 24.8428 54.1286 24.6866 53.9153C24.5305 53.7005 24.4496 53.3805 24.444 52.9551V52.4419C24.444 51.9971 24.5215 51.6667 24.6762 51.4506C24.8309 51.2345 25.0735 51.1265 25.4039 51.1265C25.7315 51.1265 25.9727 51.2311 26.1275 51.4402C26.2822 51.6481 26.3616 51.9695 26.3658 52.4044V52.9032ZM25.9789 52.3774C25.9789 52.0519 25.9329 51.815 25.841 51.6667C25.749 51.5172 25.6033 51.4423 25.4039 51.4423C25.2059 51.4423 25.0617 51.5165 24.9711 51.6647C24.8804 51.8129 24.8337 52.0408 24.8309 52.3483V52.9635C24.8309 53.2904 24.8783 53.5322 24.9731 53.6887C25.0693 53.8439 25.2143 53.9215 25.4081 53.9215C25.5991 53.9215 25.7406 53.848 25.8326 53.7012C25.926 53.5544 25.9747 53.323 25.9789 53.0072V52.3774Z" fill="black"/>
<path d="M28.5253 41.0002H30.8256" stroke="black"/>
<path d="M20.2095 39.726H20.5001C20.6828 39.7233 20.8264 39.6754 20.931 39.5826C21.0355 39.4898 21.0878 39.3644 21.0878 39.2065C21.0878 38.8518 20.91 38.6745 20.5545 38.6745C20.3872 38.6745 20.2534 38.7223 20.1531 38.8179C20.0541 38.9121 20.0045 39.0375 20.0045 39.194H19.6177C19.6177 38.9544 19.7055 38.7555 19.8812 38.5976C20.0583 38.4383 20.2827 38.3586 20.5545 38.3586C20.8417 38.3586 21.0669 38.4341 21.23 38.5851C21.3931 38.7361 21.4746 38.946 21.4746 39.2148C21.4746 39.3464 21.4314 39.4739 21.345 39.5972C21.26 39.7205 21.1436 39.8126 20.9957 39.8736C21.1631 39.9262 21.292 40.0135 21.3826 40.1354C21.4746 40.2573 21.5206 40.4062 21.5206 40.5822C21.5206 40.8537 21.4314 41.0691 21.2529 41.2285C21.0745 41.3877 20.8424 41.4674 20.5566 41.4674C20.2708 41.4674 20.038 41.3906 19.8582 41.2367C19.6798 41.083 19.5905 40.88 19.5905 40.6279H19.9795C19.9795 40.7872 20.0318 40.9147 20.1363 41.0102C20.2409 41.1058 20.381 41.1537 20.5566 41.1537C20.7434 41.1537 20.8863 41.1052 20.9853 41.0082C21.0843 40.9112 21.1338 40.772 21.1338 40.5905C21.1338 40.4145 21.0794 40.2795 20.9706 40.1853C20.8619 40.0911 20.7051 40.0425 20.5001 40.0398H20.2095V39.726ZM23.961 40.1354C23.961 40.5857 23.8836 40.9202 23.7289 41.1391C23.5741 41.358 23.3323 41.4674 23.0033 41.4674C22.6785 41.4674 22.438 41.3608 22.2818 41.1475C22.1257 40.9327 22.0448 40.6127 22.0392 40.1873V39.6741C22.0392 39.2293 22.1166 38.8989 22.2714 38.6828C22.4261 38.4667 22.6687 38.3586 22.9991 38.3586C23.3267 38.3586 23.5679 38.4633 23.7226 38.6724C23.8774 38.8802 23.9568 39.2017 23.961 39.6366V40.1354ZM23.5741 39.6096C23.5741 39.284 23.5282 39.0472 23.4362 38.8989C23.3441 38.7493 23.1985 38.6745 22.9991 38.6745C22.8011 38.6745 22.6568 38.7487 22.5662 38.8968C22.4756 39.0451 22.4289 39.273 22.4261 39.5805V40.1957C22.4261 40.5226 22.4735 40.7643 22.5683 40.9209C22.6645 41.076 22.8095 41.1537 23.0033 41.1537C23.1943 41.1537 23.3358 41.0802 23.4278 40.9334C23.5211 40.7866 23.5699 40.5552 23.5741 40.2393V39.6096ZM26.3658 40.1354C26.3658 40.5857 26.2884 40.9202 26.1337 41.1391C25.9789 41.358 25.7371 41.4674 25.4081 41.4674C25.0833 41.4674 24.8428 41.3608 24.6866 41.1475C24.5305 40.9327 24.4496 40.6127 24.444 40.1873V39.6741C24.444 39.2293 24.5215 38.8989 24.6762 38.6828C24.8309 38.4667 25.0735 38.3586 25.4039 38.3586C25.7315 38.3586 25.9727 38.4633 26.1275 38.6724C26.2822 38.8802 26.3616 39.2017 26.3658 39.6366V40.1354ZM25.9789 39.6096C25.9789 39.284 25.933 39.0472 25.841 38.8989C25.749 38.7493 25.6033 38.6745 25.4039 38.6745C25.2059 38.6745 25.0617 38.7487 24.9711 38.8968C24.8804 39.0451 24.8337 39.273 24.8309 39.5805V40.1957C24.8309 40.5226 24.8783 40.7643 24.9731 40.9209C25.0693 41.076 25.2143 41.1537 25.4081 41.1537C25.5991 41.1537 25.7406 41.0802 25.8326 40.9334C25.926 40.7866 25.9748 40.5552 25.9789 40.2393V39.6096Z" fill="black"/>
<path d="M28.5253 28.2327H30.8256" stroke="black"/>
<path d="M21.2801 28.9188H21.7025V29.2325H21.2801V29.9349H20.8912V29.2325H19.5047V29.006L20.8681 26.9092H21.2801V28.9188ZM19.9438 28.9188H20.8912V27.435L20.8452 27.5181L19.9438 28.9188ZM23.961 28.6444C23.961 29.0947 23.8835 29.4292 23.7288 29.6482C23.5741 29.867 23.3322 29.9765 23.0032 29.9765C22.6784 29.9765 22.4379 29.8698 22.2817 29.6565C22.1256 29.4417 22.0447 29.1217 22.0392 28.6964V28.1831C22.0392 27.7384 22.1165 27.4079 22.2713 27.1918C22.4261 26.9757 22.6686 26.8677 22.999 26.8677C23.3266 26.8677 23.5678 26.9723 23.7225 27.1814C23.8773 27.3893 23.9568 27.7107 23.961 28.1456V28.6444ZM23.5741 28.1187C23.5741 27.7931 23.5281 27.5562 23.4361 27.4079C23.344 27.2584 23.1984 27.1835 22.999 27.1835C22.801 27.1835 22.6567 27.2577 22.5661 27.4059C22.4755 27.5542 22.4288 27.782 22.4261 28.0896V28.7047C22.4261 29.0316 22.4734 29.2734 22.5682 29.4299C22.6644 29.5851 22.8094 29.6627 23.0032 29.6627C23.1942 29.6627 23.3357 29.5892 23.4277 29.4424C23.5211 29.2956 23.5699 29.0642 23.5741 28.7484V28.1187ZM26.3658 28.6444C26.3658 29.0947 26.2883 29.4292 26.1336 29.6482C25.9789 29.867 25.737 29.9765 25.408 29.9765C25.0832 29.9765 24.8427 29.8698 24.6865 29.6565C24.5304 29.4417 24.4495 29.1217 24.444 28.6964V28.1831C24.444 27.7384 24.5214 27.4079 24.6761 27.1918C24.8309 26.9757 25.0734 26.8677 25.4038 26.8677C25.7314 26.8677 25.9726 26.9723 26.1274 27.1814C26.2821 27.3893 26.3616 27.7107 26.3658 28.1456V28.6444ZM25.9789 28.1187C25.9789 27.7931 25.9329 27.5562 25.8409 27.4079C25.7489 27.2584 25.6032 27.1835 25.4038 27.1835C25.2059 27.1835 25.0616 27.2577 24.971 27.4059C24.8804 27.5542 24.8336 27.782 24.8309 28.0896V28.7047C24.8309 29.0316 24.8782 29.2734 24.973 29.4299C25.0692 29.5851 25.2142 29.6627 25.408 29.6627C25.599 29.6627 25.7405 29.5892 25.8325 29.4424C25.9259 29.2956 25.9747 29.0642 25.9789 28.7484V28.1187Z" fill="black"/>
<path d="M30.8255 79.3035H260.092" stroke="#CCCCCC" stroke-opacity="0.3"/>
<path d="M30.8255 66.5359H260.092" stroke="#CCCCCC" stroke-opacity="0.3"/>
<path d="M30.8255 53.7681H260.092" stroke="#CCCCCC" stroke-opacity="0.3"/>
<path d="M30.8255 41.0002H260.092" stroke="#CCCCCC" stroke-opacity="0.3"/>
<path d="M30.8255 28.2327H260.092" stroke="#CCCCCC" stroke-opacity="0.3"/>
<path d="M30.8255 28.2327V79.3037" stroke="#CCCCCC" stroke-opacity="0.3"/>
<path d="M56.2994 28.2327V79.3037" stroke="#CCCCCC" stroke-opacity="0.3"/>
<path d="M81.7737 28.2327V79.3037" stroke="#CCCCCC" stroke-opacity="0.3"/>
<path d="M107.248 28.2327V79.3037" stroke="#CCCCCC" stroke-opacity="0.3"/>
<path d="M132.722 28.2327V79.3037" stroke="#CCCCCC" stroke-opacity="0.3"/>
<path d="M158.195 28.2327V79.3037" stroke="#CCCCCC" stroke-opacity="0.3"/>
<path d="M183.669 28.2327V79.3037" stroke="#CCCCCC" stroke-opacity="0.3"/>
<path d="M209.143 28.2327V79.3037" stroke="#CCCCCC" stroke-opacity="0.3"/>
<path d="M234.617 28.2327V79.3037" stroke="#CCCCCC" stroke-opacity="0.3"/>
<path d="M260.092 28.2327V79.3037" stroke="#CCCCCC" stroke-opacity="0.3"/>
<path d="M32.0296 75.1548L56.2999 69.9071L81.7085 55.152L107.248 57.0372L132.722 53.4878L157.94 47.917L183.636 51.3218L209.144 39.8007L234.618 43.7843L259.867 38.1284" stroke="#CC3636"/>
<path d="M31.0384 76.2181C31.6736 76.2181 32.1885 75.7894 32.1885 75.2606C32.1885 74.7317 31.6736 74.303 31.0384 74.303C30.4032 74.303 29.8882 74.7317 29.8882 75.2606C29.8882 75.7894 30.4032 76.2181 31.0384 76.2181Z" fill="white" stroke="#CC3636"/>
<path d="M56.2998 70.8641C56.935 70.8641 57.45 70.4354 57.45 69.9066C57.45 69.3776 56.935 68.949 56.2998 68.949C55.6646 68.949 55.1497 69.3776 55.1497 69.9066C55.1497 70.4354 55.6646 70.8641 56.2998 70.8641Z" fill="white" stroke="#CC3636"/>
<path d="M81.5738 55.7897C82.209 55.7897 82.724 55.3609 82.724 54.8321C82.724 54.3033 82.209 53.8745 81.5738 53.8745C80.9386 53.8745 80.4237 54.3033 80.4237 54.8321C80.4237 55.3609 80.9386 55.7897 81.5738 55.7897Z" fill="white" stroke="#CC3636"/>
<path d="M107.248 57.994C107.883 57.994 108.398 57.5654 108.398 57.0364C108.398 56.5076 107.883 56.0789 107.248 56.0789C106.613 56.0789 106.098 56.5076 106.098 57.0364C106.098 57.5654 106.613 57.994 107.248 57.994Z" fill="white" stroke="#CC3636"/>
<path d="M132.722 54.4447C133.357 54.4447 133.872 54.016 133.872 53.4871C133.872 52.9583 133.357 52.5295 132.722 52.5295C132.087 52.5295 131.571 52.9583 131.571 53.4871C131.571 54.016 132.087 54.4447 132.722 54.4447Z" fill="white" stroke="#CC3636"/>
<path d="M158.196 48.4191C158.831 48.4191 159.346 47.9903 159.346 47.4615C159.346 46.9326 158.831 46.5039 158.196 46.5039C157.56 46.5039 157.046 46.9326 157.046 47.4615C157.046 47.9903 157.56 48.4191 158.196 48.4191Z" fill="white" stroke="#CC3636"/>
<path d="M183.67 52.0192C184.306 52.0192 184.82 51.5904 184.82 51.0616C184.82 50.5327 184.306 50.104 183.67 50.104C183.035 50.104 182.52 50.5327 182.52 51.0616C182.52 51.5904 183.035 52.0192 183.67 52.0192Z" fill="white" stroke="#CC3636"/>
<path d="M209.144 40.7574C209.779 40.7574 210.295 40.3288 210.295 39.7999C210.295 39.271 209.779 38.8423 209.144 38.8423C208.509 38.8423 207.994 39.271 207.994 39.7999C207.994 40.3288 208.509 40.7574 209.144 40.7574Z" fill="white" stroke="#CC3636"/>
<path d="M234.618 44.7416C235.253 44.7416 235.768 44.3128 235.768 43.784C235.768 43.2552 235.253 42.8264 234.618 42.8264C233.983 42.8264 233.468 43.2552 233.468 43.784C233.468 44.3128 233.983 44.7416 234.618 44.7416Z" fill="white" stroke="#CC3636"/>
<path d="M260.092 39.1832C260.727 39.1832 261.242 38.7546 261.242 38.2256C261.242 37.6968 260.727 37.2681 260.092 37.2681C259.457 37.2681 258.942 37.6968 258.942 38.2256C258.942 38.7546 259.457 39.1832 260.092 39.1832Z" fill="white" stroke="#CC3636"/>
<path d="M18.7208 12.1514H18.6591L17.8265 13.852L15.6218 17.8968L13.4171 13.852L12.5846 12.1514H12.5229V19.8273H10.5957V9.13306H12.8929L15.6527 14.3576H15.7143L18.4433 9.13306H20.648V19.8273H18.7208V12.1514ZM23.1827 9.13306H27.0988C27.7977 9.13306 28.4298 9.24541 28.9951 9.47013C29.5707 9.69484 30.0589 10.0319 30.4598 10.4813C30.8709 10.9205 31.1844 11.4772 31.4003 12.1514C31.6264 12.8153 31.7395 13.5916 31.7395 14.4802C31.7395 15.3688 31.6264 16.1502 31.4003 16.8244C31.1844 17.4883 30.8709 18.045 30.4598 18.4944C30.0589 18.9336 29.5707 19.2655 28.9951 19.4903C28.4298 19.715 27.7977 19.8273 27.0988 19.8273H23.1827V9.13306ZM27.0988 18.0347C27.8594 18.0347 28.4607 17.8151 28.9026 17.3759C29.3549 16.9265 29.581 16.2421 29.581 15.3229V13.6375C29.581 12.7182 29.3549 12.039 28.9026 11.5998C28.4607 11.1504 27.8594 10.9256 27.0988 10.9256H25.2178V18.0347H27.0988ZM35.8476 19.8273H33.8124V9.13306H38.669C39.1623 9.13306 39.6043 9.20966 39.9949 9.36288C40.3855 9.51609 40.7144 9.7408 40.9816 10.037C41.2591 10.323 41.4698 10.6703 41.6137 11.0789C41.7679 11.4874 41.845 11.942 41.845 12.4425C41.845 13.1779 41.6754 13.8112 41.3362 14.3423C41.0073 14.8734 40.5088 15.2514 39.8407 15.4761L42.0454 19.8273H39.779L37.7748 15.7059H35.8476V19.8273ZM38.4686 14.0052C38.8591 14.0052 39.1675 13.9031 39.3936 13.6988C39.6197 13.4843 39.7328 13.183 39.7328 12.7948V12.0901C39.7328 11.7019 39.6197 11.4057 39.3936 11.2014C39.1675 10.9971 38.8591 10.895 38.4686 10.895H35.8476V14.0052H38.4686ZM47.1342 14.3423L46.0241 12.1207H45.9779V19.8273H44.0507V9.13306H46.2862L49.5239 14.6181L50.634 16.8397H50.6802V9.13306H52.6074V19.8273H50.3719L47.1342 14.3423ZM61.7924 19.8273L60.9291 17.1001H57.1055L56.2575 19.8273H54.1916L57.7993 9.13306H60.3278L63.9047 19.8273H61.7924ZM59.0481 10.9716H58.971L57.5989 15.3688H60.4357L59.0481 10.9716ZM70.7961 19.0766V16.8005H68.6736V15.5731H70.7961V13.2851H72.1391V15.5731H74.2616V16.8005H72.1391V19.0766H70.7961ZM76.1515 19.8273V18.5523H78.4539V12.6416H78.346L76.5233 14.7866L75.54 13.9644L77.6145 11.5096H80.0008V18.5523H81.9194V19.8273H76.1515ZM88.8579 14.6317C88.8579 15.2275 88.7654 15.7916 88.5821 16.3239C88.4057 16.8482 88.1744 17.3328 87.8866 17.7777C87.5988 18.2146 87.2751 18.6078 86.9153 18.9574C86.5633 19.299 86.2117 19.589 85.8599 19.8273H83.7254C84.213 19.4777 84.6528 19.1402 85.0445 18.8144C85.4362 18.4887 85.776 18.159 86.0637 17.8253C86.3595 17.4917 86.5993 17.1461 86.7834 16.7886C86.9753 16.4232 87.1192 16.0299 87.2151 15.6089L87.1192 15.585C87.0387 15.7439 86.9427 15.8989 86.8314 16.0498C86.7269 16.2007 86.5993 16.3318 86.4476 16.443C86.2956 16.5543 86.1197 16.6456 85.9199 16.7171C85.72 16.7807 85.4882 16.8124 85.2243 16.8124C84.8726 16.8124 84.5488 16.7529 84.253 16.6337C83.9573 16.5145 83.6974 16.3437 83.4736 16.1213C83.2577 15.8909 83.0858 15.6208 82.958 15.3109C82.838 14.9932 82.7781 14.6357 82.7781 14.2385C82.7781 13.8174 82.85 13.4321 82.9939 13.0825C83.1378 12.733 83.3417 12.4311 83.6055 12.1769C83.8693 11.9226 84.1851 11.7241 84.5528 11.5811C84.9286 11.4381 85.3483 11.3666 85.8119 11.3666C86.2916 11.3666 86.7192 11.446 87.0952 11.6049C87.4703 11.7558 87.7907 11.9743 88.0545 12.2603C88.3183 12.5384 88.5179 12.88 88.6541 13.2851C88.7894 13.6824 88.8579 14.1312 88.8579 14.6317ZM85.8119 15.5969C86.2596 15.5969 86.607 15.4778 86.8554 15.2394C87.1029 14.9932 87.2271 14.6436 87.2271 14.1908V14.012C87.2271 13.5592 87.1029 13.2136 86.8554 12.9753C86.607 12.7291 86.2596 12.6059 85.8119 12.6059C85.3723 12.6059 85.0245 12.7291 84.7687 12.9753C84.5209 13.2136 84.3969 13.5592 84.3969 14.012V14.1908C84.3969 14.6436 84.5209 14.9932 84.7687 15.2394C85.0245 15.4778 85.3723 15.5969 85.8119 15.5969ZM93.6134 19.8273V18.2186H89.8241V16.8839L93.1577 11.5096H95.1123V17.0031H96.2035V18.2186H95.1123V19.8273H93.6134ZM91.1192 17.0031H93.6134V13.0349H93.5175L91.1192 17.0031ZM98.6575 19.8273L101.571 12.7846H98.6815V14.31H97.3385V11.5096H103.142V12.8561L100.312 19.8273H98.6575ZM105.979 19.8273L111.783 11.5096H113.174L107.37 19.8273H105.979ZM106.555 16.0855C105.876 16.0855 105.356 15.8869 104.996 15.4897C104.645 15.0845 104.468 14.4966 104.468 13.726C104.468 12.9555 104.645 12.3716 104.996 11.9743C105.356 11.5691 105.876 11.3666 106.555 11.3666C107.235 11.3666 107.75 11.5691 108.102 11.9743C108.454 12.3716 108.629 12.9555 108.629 13.726C108.629 14.4966 108.454 15.0845 108.102 15.4897C107.75 15.8869 107.235 16.0855 106.555 16.0855ZM106.555 15.1799C107.051 15.1799 107.298 14.8025 107.298 14.0478V13.4043C107.298 12.6496 107.051 12.2722 106.555 12.2722C106.06 12.2722 105.811 12.6496 105.811 13.4043V14.0478C105.811 14.8025 106.06 15.1799 106.555 15.1799ZM112.598 19.9703C111.927 19.9703 111.411 19.7717 111.052 19.3745C110.7 18.9693 110.524 18.3814 110.524 17.6108C110.524 16.8403 110.7 16.2564 111.052 15.8591C111.411 15.4539 111.927 15.2514 112.598 15.2514C113.279 15.2514 113.794 15.4539 114.145 15.8591C114.505 16.2564 114.685 16.8403 114.685 17.6108C114.685 18.3814 114.505 18.9693 114.145 19.3745C113.794 19.7717 113.279 19.9703 112.598 19.9703ZM112.598 19.0647C113.094 19.0647 113.342 18.6873 113.342 17.9326V17.2891C113.342 16.5344 113.094 16.157 112.598 16.157C112.103 16.157 111.855 16.5344 111.855 17.2891V17.9326C111.855 18.6873 112.103 19.0647 112.598 19.0647Z" fill="#FF4B07"/>
</g>
<defs>
<clipPath id="clip0_8_987">
<rect width="273.234" height="95.3326" fill="white" transform="translate(0.766144 0.25)"/>
</clipPath>
</defs>
</svg>
