<svg width="274" height="96" viewBox="0 0 274 96" fill="none" xmlns="http://www.w3.org/2000/svg">
<rect x="1.76614" y="1.17969" width="271.234" height="93.0704" rx="4" fill="white" stroke="#EEEEEE" stroke-width="2"/>
<path d="M14.4074 15.9801L13.1114 13.3701H13.0574V22.4241H10.8074V9.86007H13.4174L17.1974 16.3041L18.4934 18.9141H18.5474V9.86007H20.7974V22.4241H18.1874L14.4074 15.9801ZM26.6609 22.4241L22.5569 9.86007H24.9869L26.9129 15.9801L28.0289 20.1561H28.0829L29.1809 15.9801L31.1069 9.86007H33.4649L29.3609 22.4241H26.6609ZM42.1029 22.4241L41.0949 19.2201H36.6309L35.6409 22.4241H33.2289L37.4409 9.86007H40.3929L44.5689 22.4241H42.1029ZM38.8989 12.0201H38.8089L37.2069 17.1861H40.5189L38.8989 12.0201ZM56.4985 22.4241H53.7265L50.8465 17.6001H50.7925L47.9485 22.4241H45.3565L49.4245 15.9801L45.5365 9.86007H48.3085L50.9725 14.3241H51.0265L53.7265 9.86007H56.3185L52.3945 15.9801L56.4985 22.4241ZM64.4974 21.5421V18.8681H62.0194V17.4261H64.4974V14.7381H66.0654V17.4261H68.5434V18.8681H66.0654V21.5421H64.4974ZM73.1439 16.6001C73.7039 16.6001 74.1146 16.4881 74.3759 16.2641C74.6466 16.0307 74.7819 15.7367 74.7819 15.3821V15.2841C74.7819 14.8827 74.6512 14.5701 74.3899 14.3461C74.1379 14.1127 73.7879 13.9961 73.3399 13.9961C72.9106 13.9961 72.5279 14.0987 72.1919 14.3041C71.8652 14.5094 71.5806 14.7987 71.3379 15.1721L70.1619 14.1081C70.3299 13.8841 70.5119 13.6741 70.7079 13.4781C70.9132 13.2727 71.1466 13.1001 71.4079 12.9601C71.6692 12.8107 71.9632 12.6941 72.2899 12.6101C72.6166 12.5261 72.9852 12.4841 73.3959 12.4841C73.8906 12.4841 74.3386 12.5447 74.7399 12.6661C75.1506 12.7781 75.5006 12.9461 75.7899 13.1701C76.0886 13.3941 76.3172 13.6647 76.4759 13.9821C76.6346 14.2901 76.7139 14.6401 76.7139 15.0321C76.7139 15.3494 76.6626 15.6341 76.5599 15.8861C76.4666 16.1381 76.3312 16.3574 76.1539 16.5441C75.9859 16.7307 75.7852 16.8847 75.5519 17.0061C75.3279 17.1181 75.0899 17.2021 74.8379 17.2581V17.3421C75.1179 17.3981 75.3839 17.4867 75.6359 17.6081C75.8879 17.7294 76.1026 17.8927 76.2799 18.0981C76.4666 18.2941 76.6112 18.5274 76.7139 18.7981C76.8259 19.0687 76.8819 19.3767 76.8819 19.7221C76.8819 20.1514 76.7932 20.5434 76.6159 20.8981C76.4479 21.2527 76.2052 21.5561 75.8879 21.8081C75.5706 22.0601 75.1926 22.2561 74.7539 22.3961C74.3152 22.5267 73.8252 22.5921 73.2839 22.5921C72.8079 22.5921 72.3879 22.5407 72.0239 22.4381C71.6599 22.3447 71.3379 22.2141 71.0579 22.0461C70.7872 21.8781 70.5492 21.6867 70.3439 21.4721C70.1386 21.2481 69.9612 21.0147 69.8119 20.7721L71.1699 19.7361C71.2819 19.9321 71.4032 20.1141 71.5339 20.2821C71.6646 20.4407 71.8139 20.5807 71.9819 20.7021C72.1499 20.8234 72.3412 20.9167 72.5559 20.9821C72.7706 21.0474 73.0132 21.0801 73.2839 21.0801C73.8252 21.0801 74.2406 20.9494 74.5299 20.6881C74.8192 20.4267 74.9639 20.0674 74.9639 19.6101V19.5121C74.9639 19.0641 74.8052 18.7234 74.4879 18.4901C74.1799 18.2567 73.7319 18.1401 73.1439 18.1401H72.1779V16.6001H73.1439ZM85.5144 22.4241H78.7384V20.7161L81.8044 18.0281C82.3271 17.5707 82.7098 17.1601 82.9524 16.7961C83.1951 16.4227 83.3164 16.0214 83.3164 15.5921V15.4101C83.3164 14.9807 83.1764 14.6541 82.8964 14.4301C82.6164 14.1967 82.2758 14.0801 81.8744 14.0801C81.3704 14.0801 80.9878 14.2247 80.7264 14.5141C80.4651 14.7941 80.2784 15.1347 80.1664 15.5361L78.5704 14.9201C78.6731 14.5934 78.8178 14.2854 79.0044 13.9961C79.1911 13.6974 79.4244 13.4361 79.7044 13.2121C79.9938 12.9881 80.3298 12.8107 80.7124 12.6801C81.0951 12.5494 81.5338 12.4841 82.0284 12.4841C82.5418 12.4841 82.9991 12.5587 83.4004 12.7081C83.8018 12.8481 84.1378 13.0487 84.4084 13.3101C84.6884 13.5714 84.8984 13.8794 85.0384 14.2341C85.1878 14.5887 85.2624 14.9761 85.2624 15.3961C85.2624 15.8067 85.1971 16.1801 85.0664 16.5161C84.9358 16.8521 84.7584 17.1741 84.5344 17.4821C84.3104 17.7807 84.0491 18.0701 83.7504 18.3501C83.4518 18.6207 83.1344 18.8961 82.7984 19.1761L80.7404 20.8701H85.5144V22.4241ZM90.507 22.5921C89.947 22.5921 89.4476 22.5034 89.009 22.3261C88.5703 22.1394 88.197 21.8827 87.889 21.5561C87.581 21.2201 87.3476 20.8187 87.189 20.3521C87.0303 19.8761 86.951 19.3441 86.951 18.7561C86.951 18.0561 87.0536 17.3981 87.259 16.7821C87.4736 16.1567 87.749 15.5874 88.085 15.0741C88.421 14.5514 88.7943 14.0894 89.205 13.6881C89.625 13.2774 90.0403 12.9321 90.451 12.6521H92.943C92.3643 13.0627 91.8463 13.4594 91.389 13.8421C90.941 14.2247 90.5443 14.6121 90.199 15.0041C89.863 15.3961 89.583 15.8067 89.359 16.2361C89.1443 16.6561 88.981 17.1134 88.869 17.6081L88.981 17.6361C89.0743 17.4494 89.1816 17.2721 89.303 17.1041C89.4336 16.9267 89.5876 16.7727 89.765 16.6421C89.9423 16.5021 90.1476 16.3947 90.381 16.3201C90.6143 16.2361 90.885 16.1941 91.193 16.1941C91.5943 16.1941 91.9676 16.2641 92.313 16.4041C92.6676 16.5441 92.971 16.7494 93.223 17.0201C93.4843 17.2814 93.685 17.5987 93.825 17.9721C93.9743 18.3454 94.049 18.7607 94.049 19.2181C94.049 19.7127 93.965 20.1654 93.797 20.5761C93.629 20.9867 93.391 21.3414 93.083 21.6401C92.775 21.9387 92.4016 22.1721 91.963 22.3401C91.5336 22.5081 91.0483 22.5921 90.507 22.5921ZM90.507 21.1361C91.0203 21.1361 91.4216 20.9961 91.711 20.7161C92.0096 20.4267 92.159 20.0161 92.159 19.4841V19.2741C92.159 18.7421 92.0096 18.3361 91.711 18.0561C91.4216 17.7667 91.0203 17.6221 90.507 17.6221C89.9843 17.6221 89.5783 17.7667 89.289 18.0561C88.9996 18.3361 88.855 18.7421 88.855 19.2741V19.4841C88.855 20.0161 88.9996 20.4267 89.289 20.7161C89.5783 20.9961 89.9843 21.1361 90.507 21.1361ZM102.374 16.3201C102.374 17.0201 102.266 17.6827 102.052 18.3081C101.846 18.9241 101.576 19.4934 101.24 20.0161C100.904 20.5294 100.526 20.9914 100.106 21.4021C99.6948 21.8034 99.2842 22.1441 98.8735 22.4241H96.3815C96.9508 22.0134 97.4642 21.6167 97.9215 21.2341C98.3788 20.8514 98.7755 20.4641 99.1115 20.0721C99.4568 19.6801 99.7368 19.2741 99.9515 18.8541C100.176 18.4247 100.344 17.9627 100.456 17.4681L100.344 17.4401C100.25 17.6267 100.138 17.8087 100.008 17.9861C99.8862 18.1634 99.7368 18.3174 99.5595 18.4481C99.3822 18.5787 99.1768 18.6861 98.9435 18.7701C98.7102 18.8447 98.4395 18.8821 98.1315 18.8821C97.7208 18.8821 97.3428 18.8121 96.9975 18.6721C96.6522 18.5321 96.3488 18.3314 96.0875 18.0701C95.8355 17.7994 95.6348 17.4821 95.4855 17.1181C95.3455 16.7447 95.2755 16.3247 95.2755 15.8581C95.2755 15.3634 95.3595 14.9107 95.5275 14.5001C95.6955 14.0894 95.9335 13.7347 96.2415 13.4361C96.5495 13.1374 96.9182 12.9041 97.3475 12.7361C97.7862 12.5681 98.2762 12.4841 98.8175 12.4841C99.3775 12.4841 99.8768 12.5774 100.316 12.7641C100.754 12.9414 101.128 13.1981 101.436 13.5341C101.744 13.8607 101.977 14.2621 102.136 14.7381C102.294 15.2047 102.374 15.7321 102.374 16.3201ZM98.8175 17.4541C99.3402 17.4541 99.7462 17.3141 100.036 17.0341C100.325 16.7447 100.47 16.3341 100.47 15.8021V15.5921C100.47 15.0601 100.325 14.6541 100.036 14.3741C99.7462 14.0847 99.3402 13.9401 98.8175 13.9401C98.3042 13.9401 97.8982 14.0847 97.5995 14.3741C97.3102 14.6541 97.1655 15.0601 97.1655 15.5921V15.8021C97.1655 16.3341 97.3102 16.7447 97.5995 17.0341C97.8982 17.3141 98.3042 17.4541 98.8175 17.4541ZM105.574 22.4241L112.35 12.6521H113.974L107.198 22.4241H105.574ZM106.246 18.0281C105.453 18.0281 104.846 17.7947 104.426 17.3281C104.015 16.8521 103.81 16.1614 103.81 15.2561C103.81 14.3507 104.015 13.6647 104.426 13.1981C104.846 12.7221 105.453 12.4841 106.246 12.4841C107.039 12.4841 107.641 12.7221 108.052 13.1981C108.463 13.6647 108.668 14.3507 108.668 15.2561C108.668 16.1614 108.463 16.8521 108.052 17.3281C107.641 17.7947 107.039 18.0281 106.246 18.0281ZM106.246 16.9641C106.825 16.9641 107.114 16.5207 107.114 15.6341V14.8781C107.114 13.9914 106.825 13.5481 106.246 13.5481C105.667 13.5481 105.378 13.9914 105.378 14.8781V15.6341C105.378 16.5207 105.667 16.9641 106.246 16.9641ZM113.302 22.5921C112.518 22.5921 111.916 22.3587 111.496 21.8921C111.085 21.4161 110.88 20.7254 110.88 19.8201C110.88 18.9147 111.085 18.2287 111.496 17.7621C111.916 17.2861 112.518 17.0481 113.302 17.0481C114.095 17.0481 114.697 17.2861 115.108 17.7621C115.528 18.2287 115.738 18.9147 115.738 19.8201C115.738 20.7254 115.528 21.4161 115.108 21.8921C114.697 22.3587 114.095 22.5921 113.302 22.5921ZM113.302 21.5281C113.881 21.5281 114.17 21.0847 114.17 20.1981V19.4421C114.17 18.5554 113.881 18.1121 113.302 18.1121C112.723 18.1121 112.434 18.5554 112.434 19.4421V20.1981C112.434 21.0847 112.723 21.5281 113.302 21.5281Z" fill="#3C00FF"/>
<g clip-path="url(#clip0_8_1033)">
<path d="M27.3996 80.7139H256.666" stroke="black"/>
<path d="M27.3996 82.6238V80.7139" stroke="black"/>
<path d="M24.8531 84.3376H23.9522L23.9473 83.9592H24.7652C24.9003 83.9592 25.0183 83.9364 25.1192 83.8909C25.2201 83.8453 25.2982 83.7802 25.3535 83.6956C25.4105 83.6093 25.439 83.5068 25.439 83.3879C25.439 83.2577 25.4138 83.1519 25.3633 83.0706C25.3145 82.9875 25.2388 82.9273 25.1363 82.8899C25.0353 82.8508 24.9068 82.8313 24.7505 82.8313H24.0572V86.0002H23.586V82.4456H24.7505C24.9328 82.4456 25.0956 82.4643 25.2388 82.5017C25.382 82.5375 25.5033 82.5945 25.6026 82.6726C25.7035 82.7491 25.78 82.8468 25.8321 82.9656C25.8841 83.0844 25.9102 83.2268 25.9102 83.3928C25.9102 83.5393 25.8728 83.672 25.7979 83.7908C25.723 83.908 25.6188 84.004 25.4854 84.0789C25.3535 84.1537 25.1989 84.2017 25.0215 84.2229L24.8531 84.3376ZM24.8311 86.0002H23.7666L24.0327 85.6169H24.8311C24.9808 85.6169 25.1078 85.5909 25.2119 85.5388C25.3177 85.4867 25.3983 85.4135 25.4536 85.3191C25.509 85.2231 25.5367 85.1099 25.5367 84.9797C25.5367 84.8479 25.5131 84.734 25.4659 84.6379C25.4187 84.5419 25.3446 84.4679 25.2437 84.4158C25.1428 84.3637 25.0126 84.3376 24.8531 84.3376H24.1817L24.1866 83.9592H25.1045L25.2046 84.0959C25.3755 84.1106 25.5204 84.1594 25.6392 84.2424C25.758 84.3238 25.8483 84.428 25.9102 84.5549C25.9737 84.6819 26.0054 84.8219 26.0054 84.9749C26.0054 85.1962 25.9566 85.3834 25.8589 85.5364C25.7629 85.6877 25.627 85.8033 25.4512 85.8831C25.2754 85.9612 25.0687 86.0002 24.8311 86.0002ZM27.729 86.0491C27.5451 86.0491 27.3783 86.0181 27.2285 85.9563C27.0804 85.8928 26.9527 85.8041 26.8452 85.6902C26.7395 85.5763 26.6581 85.4412 26.6011 85.2849C26.5441 85.1287 26.5157 84.9578 26.5157 84.7722V84.6697C26.5157 84.4548 26.5474 84.2636 26.6109 84.0959C26.6743 83.9267 26.7606 83.7834 26.8697 83.6663C26.9787 83.5491 27.1024 83.4604 27.2408 83.4001C27.3791 83.3399 27.5223 83.3098 27.6704 83.3098C27.8592 83.3098 28.022 83.3424 28.1587 83.4075C28.2971 83.4726 28.4102 83.5637 28.4981 83.6809C28.586 83.7965 28.6511 83.9332 28.6934 84.0911C28.7357 84.2473 28.7569 84.4182 28.7569 84.6038V84.8064H26.7842V84.4377H28.3052V84.4036C28.2987 84.2864 28.2743 84.1724 28.232 84.0618C28.1913 83.9511 28.1262 83.8599 28.0367 83.7883C27.9471 83.7167 27.8251 83.6809 27.6704 83.6809C27.5679 83.6809 27.4735 83.7029 27.3872 83.7468C27.301 83.7891 27.2269 83.8526 27.1651 83.9373C27.1032 84.0219 27.0552 84.1252 27.021 84.2473C26.9868 84.3694 26.9698 84.5102 26.9698 84.6697V84.7722C26.9698 84.8975 26.9868 85.0155 27.021 85.1262C27.0568 85.2353 27.1081 85.3313 27.1748 85.4143C27.2432 85.4973 27.3254 85.5624 27.4214 85.6096C27.5191 85.6568 27.6298 85.6804 27.7534 85.6804C27.913 85.6804 28.048 85.6479 28.1587 85.5828C28.2694 85.5177 28.3662 85.4306 28.4492 85.3215L28.7227 85.5388C28.6657 85.6251 28.5933 85.7073 28.5054 85.7854C28.4175 85.8635 28.3093 85.927 28.1807 85.9758C28.0537 86.0247 27.9032 86.0491 27.729 86.0491ZM29.958 86.0002H29.5064V83.0803C29.5064 82.8899 29.5406 82.7296 29.6089 82.5994C29.6789 82.4675 29.779 82.3682 29.9092 82.3015C30.0394 82.2332 30.194 82.199 30.3731 82.199C30.4252 82.199 30.4772 82.2022 30.5293 82.2087C30.583 82.2153 30.6351 82.225 30.6856 82.238L30.6612 82.6067C30.627 82.5986 30.5879 82.5929 30.544 82.5896C30.5017 82.5863 30.4593 82.5847 30.417 82.5847C30.321 82.5847 30.238 82.6042 30.168 82.6433C30.0996 82.6807 30.0476 82.7361 30.0117 82.8093C29.9759 82.8826 29.958 82.9729 29.958 83.0803V86.0002ZM30.5196 83.3586V83.7053H29.0889V83.3586H30.5196ZM30.9029 84.7087V84.6526C30.9029 84.4622 30.9305 84.2856 30.9859 84.1228C31.0412 83.9584 31.121 83.816 31.2251 83.6956C31.3293 83.5735 31.4554 83.4791 31.6035 83.4124C31.7517 83.344 31.9177 83.3098 32.1016 83.3098C32.2871 83.3098 32.454 83.344 32.6021 83.4124C32.7518 83.4791 32.8788 83.5735 32.9829 83.6956C33.0887 83.816 33.1693 83.9584 33.2246 84.1228C33.28 84.2856 33.3076 84.4622 33.3076 84.6526V84.7087C33.3076 84.8992 33.28 85.0758 33.2246 85.2385C33.1693 85.4013 33.0887 85.5437 32.9829 85.6658C32.8788 85.7862 32.7526 85.8806 32.6045 85.949C32.458 86.0157 32.292 86.0491 32.1065 86.0491C31.9209 86.0491 31.7541 86.0157 31.606 85.949C31.4579 85.8806 31.3309 85.7862 31.2251 85.6658C31.121 85.5437 31.0412 85.4013 30.9859 85.2385C30.9305 85.0758 30.9029 84.8992 30.9029 84.7087ZM31.3545 84.6526V84.7087C31.3545 84.8406 31.37 84.9651 31.4009 85.0823C31.4318 85.1978 31.4782 85.3004 31.5401 85.3899C31.6035 85.4794 31.6825 85.5502 31.7769 85.6023C31.8713 85.6528 31.9812 85.678 32.1065 85.678C32.2302 85.678 32.3384 85.6528 32.4312 85.6023C32.5256 85.5502 32.6037 85.4794 32.6656 85.3899C32.7274 85.3004 32.7738 85.1978 32.8047 85.0823C32.8373 84.9651 32.8535 84.8406 32.8535 84.7087V84.6526C32.8535 84.5224 32.8373 84.3995 32.8047 84.2839C32.7738 84.1667 32.7266 84.0634 32.6631 83.9739C32.6013 83.8827 32.5231 83.8111 32.4287 83.759C32.336 83.7069 32.2269 83.6809 32.1016 83.6809C31.9779 83.6809 31.8688 83.7069 31.7744 83.759C31.6817 83.8111 31.6035 83.8827 31.5401 83.9739C31.4782 84.0634 31.4318 84.1667 31.4009 84.2839C31.37 84.3995 31.3545 84.5224 31.3545 84.6526ZM34.3257 83.7737V86.0002H33.8741V83.3586H34.3135L34.3257 83.7737ZM35.1509 83.344L35.1485 83.7639C35.111 83.7558 35.0752 83.7509 35.041 83.7493C35.0085 83.746 34.9711 83.7444 34.9287 83.7444C34.8246 83.7444 34.7326 83.7607 34.6529 83.7932C34.5731 83.8258 34.5056 83.8713 34.4502 83.9299C34.3949 83.9885 34.3509 84.0585 34.3184 84.1399C34.2875 84.2196 34.2671 84.3075 34.2574 84.4036L34.1304 84.4768C34.1304 84.3173 34.1459 84.1676 34.1768 84.0276C34.2093 83.8876 34.259 83.7639 34.3257 83.6565C34.3924 83.5474 34.4771 83.4628 34.5796 83.4026C34.6838 83.3407 34.8075 83.3098 34.9507 83.3098C34.9833 83.3098 35.0207 83.3139 35.063 83.322C35.1053 83.3285 35.1346 83.3359 35.1509 83.344ZM36.6158 86.0491C36.4318 86.0491 36.265 86.0181 36.1153 85.9563C35.9672 85.8928 35.8394 85.8041 35.732 85.6902C35.6262 85.5763 35.5448 85.4412 35.4878 85.2849C35.4309 85.1287 35.4024 84.9578 35.4024 84.7722V84.6697C35.4024 84.4548 35.4341 84.2636 35.4976 84.0959C35.5611 83.9267 35.6473 83.7834 35.7564 83.6663C35.8654 83.5491 35.9891 83.4604 36.1275 83.4001C36.2658 83.3399 36.409 83.3098 36.5572 83.3098C36.746 83.3098 36.9087 83.3424 37.0454 83.4075C37.1838 83.4726 37.2969 83.5637 37.3848 83.6809C37.4727 83.7965 37.5378 83.9332 37.5801 84.0911C37.6224 84.2473 37.6436 84.4182 37.6436 84.6038V84.8064H35.6709V84.4377H37.1919V84.4036C37.1854 84.2864 37.161 84.1724 37.1187 84.0618C37.078 83.9511 37.0129 83.8599 36.9234 83.7883C36.8339 83.7167 36.7118 83.6809 36.5572 83.6809C36.4546 83.6809 36.3602 83.7029 36.274 83.7468C36.1877 83.7891 36.1136 83.8526 36.0518 83.9373C35.9899 84.0219 35.9419 84.1252 35.9077 84.2473C35.8736 84.3694 35.8565 84.5102 35.8565 84.6697V84.7722C35.8565 84.8975 35.8736 85.0155 35.9077 85.1262C35.9436 85.2353 35.9948 85.3313 36.0616 85.4143C36.1299 85.4973 36.2121 85.5624 36.3081 85.6096C36.4058 85.6568 36.5165 85.6804 36.6402 85.6804C36.7997 85.6804 36.9348 85.6479 37.0454 85.5828C37.1561 85.5177 37.253 85.4306 37.336 85.3215L37.6094 85.5388C37.5524 85.6251 37.48 85.7073 37.3921 85.7854C37.3042 85.8635 37.196 85.927 37.0674 85.9758C36.9405 86.0247 36.7899 86.0491 36.6158 86.0491ZM16.2715 89.5793V89.5549C16.2715 89.2001 16.3114 88.8795 16.3911 88.593C16.4709 88.3049 16.5726 88.0527 16.6963 87.8362C16.82 87.6197 16.9502 87.4407 17.0869 87.2991C17.2237 87.1558 17.3498 87.0525 17.4654 86.989L17.5606 87.2869C17.4645 87.3601 17.3669 87.461 17.2676 87.5896C17.17 87.7182 17.0796 87.8761 16.9966 88.0632C16.9152 88.2504 16.8493 88.4677 16.7989 88.7151C16.7484 88.9625 16.7232 89.2408 16.7232 89.55V89.5842C16.7232 89.8935 16.7484 90.1726 16.7989 90.4216C16.8493 90.669 16.9152 90.8871 16.9966 91.0759C17.0796 91.2647 17.17 91.425 17.2676 91.5569C17.3669 91.6903 17.4645 91.7961 17.5606 91.8743L17.4654 92.1477C17.3498 92.0842 17.2237 91.9809 17.0869 91.8376C16.9502 91.696 16.82 91.517 16.6963 91.3005C16.5726 91.0857 16.4709 90.8342 16.3911 90.5461C16.3114 90.2581 16.2715 89.9358 16.2715 89.5793ZM20.2827 90.6292V91.0002H17.9561V90.6755L19.1206 89.3792C19.2639 89.2196 19.3745 89.0846 19.4527 88.9739C19.5324 88.8616 19.5878 88.7615 19.6187 88.6736C19.6512 88.5841 19.6675 88.4929 19.6675 88.4001C19.6675 88.283 19.6431 88.1772 19.5943 88.0828C19.5471 87.9867 19.4771 87.9102 19.3843 87.8533C19.2915 87.7963 19.1792 87.7678 19.0474 87.7678C18.8895 87.7678 18.7577 87.7987 18.6519 87.8606C18.5477 87.9208 18.4696 88.0055 18.4175 88.1145C18.3654 88.2236 18.3394 88.3489 18.3394 88.4905H17.8877C17.8877 88.2903 17.9317 88.1072 18.0196 87.9412C18.1075 87.7751 18.2377 87.6433 18.4102 87.5457C18.5827 87.4464 18.7951 87.3967 19.0474 87.3967C19.272 87.3967 19.4641 87.4366 19.6236 87.5164C19.7831 87.5945 19.9051 87.7052 19.9898 87.8484C20.076 87.99 20.1192 88.156 20.1192 88.3464C20.1192 88.4506 20.1013 88.5564 20.0655 88.6638C20.0313 88.7696 19.9833 88.8754 19.9214 88.9812C19.8612 89.087 19.7904 89.1912 19.709 89.2937C19.6293 89.3962 19.5438 89.4972 19.4527 89.5964L18.5005 90.6292H20.2827ZM22.7974 90.7268L23.5323 88.3586H24.0157L22.9561 91.408C22.9317 91.4731 22.8991 91.5431 22.8584 91.6179C22.8194 91.6944 22.7689 91.7668 22.7071 91.8352C22.6452 91.9036 22.5703 91.9589 22.4825 92.0012C22.3962 92.0452 22.2928 92.0671 22.1724 92.0671C22.1366 92.0671 22.091 92.0623 22.0357 92.0525C21.9803 92.0427 21.9413 92.0346 21.9185 92.0281L21.916 91.6619C21.9291 91.6635 21.9494 91.6651 21.9771 91.6667C22.0064 91.67 22.0267 91.6716 22.0381 91.6716C22.1407 91.6716 22.2277 91.6578 22.2993 91.6301C22.371 91.6041 22.4312 91.5593 22.48 91.4958C22.5305 91.434 22.5736 91.3486 22.6094 91.2395L22.7974 90.7268ZM22.2578 88.3586L22.9439 90.4094L23.0611 90.8855L22.7364 91.0515L21.7647 88.3586H22.2578ZM25.4854 91.0491C25.3015 91.0491 25.1346 91.0181 24.9849 90.9563C24.8368 90.8928 24.709 90.8041 24.6016 90.6902C24.4958 90.5763 24.4144 90.4412 24.3575 90.2849C24.3005 90.1287 24.272 89.9578 24.272 89.7722V89.6697C24.272 89.4548 24.3037 89.2636 24.3672 89.0959C24.4307 88.9267 24.517 88.7834 24.626 88.6663C24.7351 88.5491 24.8588 88.4604 24.9971 88.4001C25.1354 88.3399 25.2787 88.3098 25.4268 88.3098C25.6156 88.3098 25.7784 88.3424 25.9151 88.4075C26.0534 88.4726 26.1665 88.5637 26.2544 88.6809C26.3423 88.7965 26.4074 88.9332 26.4497 89.0911C26.4921 89.2473 26.5132 89.4182 26.5132 89.6038V89.8064H24.5406V89.4377H26.0616V89.4036C26.055 89.2864 26.0306 89.1724 25.9883 89.0618C25.9476 88.9511 25.8825 88.8599 25.793 88.7883C25.7035 88.7167 25.5814 88.6809 25.4268 88.6809C25.3242 88.6809 25.2298 88.7029 25.1436 88.7468C25.0573 88.7891 24.9833 88.8526 24.9214 88.9373C24.8596 89.0219 24.8116 89.1252 24.7774 89.2473C24.7432 89.3694 24.7261 89.5102 24.7261 89.6697V89.7722C24.7261 89.8975 24.7432 90.0155 24.7774 90.1262C24.8132 90.2353 24.8645 90.3313 24.9312 90.4143C24.9995 90.4973 25.0817 90.5624 25.1778 90.6096C25.2754 90.6568 25.3861 90.6804 25.5098 90.6804C25.6693 90.6804 25.8044 90.6479 25.9151 90.5828C26.0257 90.5177 26.1226 90.4306 26.2056 90.3215L26.479 90.5388C26.4221 90.6251 26.3496 90.7073 26.2617 90.7854C26.1739 90.8635 26.0656 90.927 25.937 90.9758C25.8101 91.0247 25.6595 91.0491 25.4854 91.0491ZM28.5982 90.5486V89.1887C28.5982 89.0846 28.577 88.9942 28.5347 88.9177C28.494 88.8396 28.4322 88.7794 28.3492 88.7371C28.2661 88.6947 28.1636 88.6736 28.0415 88.6736C27.9276 88.6736 27.8275 88.6931 27.7412 88.7322C27.6566 88.7712 27.5899 88.8225 27.541 88.886C27.4938 88.9495 27.4702 89.0178 27.4702 89.0911H27.0186C27.0186 88.9967 27.043 88.9031 27.0918 88.8103C27.1407 88.7175 27.2106 88.6337 27.3018 88.5588C27.3946 88.4823 27.5052 88.4221 27.6338 88.3782C27.764 88.3326 27.9089 88.3098 28.0684 88.3098C28.2604 88.3098 28.4297 88.3424 28.5762 88.4075C28.7243 88.4726 28.8399 88.571 28.9229 88.7029C29.0075 88.8331 29.0498 88.9967 29.0498 89.1936V90.4241C29.0498 90.512 29.0572 90.6056 29.0718 90.7048C29.0881 90.8041 29.1117 90.8896 29.1426 90.9612V91.0002H28.6714C28.6486 90.9482 28.6307 90.879 28.6177 90.7927C28.6047 90.7048 28.5982 90.6235 28.5982 90.5486ZM28.6763 89.3987L28.6812 89.7161H28.2246C28.0961 89.7161 27.9813 89.7266 27.8804 89.7478C27.7795 89.7673 27.6949 89.7974 27.6265 89.8381C27.5581 89.8788 27.5061 89.9301 27.4702 89.9919C27.4344 90.0522 27.4165 90.123 27.4165 90.2043C27.4165 90.2874 27.4353 90.363 27.4727 90.4314C27.5101 90.4998 27.5663 90.5543 27.6411 90.595C27.7176 90.634 27.8112 90.6536 27.9219 90.6536C28.0603 90.6536 28.1823 90.6243 28.2881 90.5657C28.3939 90.5071 28.4777 90.4355 28.5396 90.3508C28.6031 90.2662 28.6372 90.184 28.6421 90.1042L28.835 90.3215C28.8236 90.3899 28.7927 90.4656 28.7422 90.5486C28.6918 90.6316 28.6242 90.7113 28.5396 90.7878C28.4566 90.8627 28.3573 90.9254 28.2417 90.9758C28.1278 91.0247 27.9992 91.0491 27.856 91.0491C27.677 91.0491 27.5199 91.0141 27.3848 90.9441C27.2513 90.8741 27.1472 90.7805 27.0723 90.6633C26.9991 90.5445 26.9624 90.4119 26.9624 90.2654C26.9624 90.1238 26.9901 89.9993 27.0454 89.8918C27.1008 89.7828 27.1805 89.6925 27.2847 89.6208C27.3889 89.5476 27.5142 89.4923 27.6607 89.4548C27.8072 89.4174 27.9707 89.3987 28.1514 89.3987H28.6763ZM30.2119 88.7737V91.0002H29.7603V88.3586H30.1997L30.2119 88.7737ZM31.0371 88.344L31.0347 88.7639C30.9973 88.7558 30.9615 88.7509 30.9273 88.7493C30.8947 88.746 30.8573 88.7444 30.815 88.7444C30.7108 88.7444 30.6188 88.7607 30.5391 88.7932C30.4593 88.8258 30.3918 88.8713 30.3365 88.9299C30.2811 88.9885 30.2372 89.0585 30.2046 89.1399C30.1737 89.2196 30.1534 89.3075 30.1436 89.4036L30.0166 89.4768C30.0166 89.3173 30.0321 89.1676 30.063 89.0276C30.0956 88.8876 30.1452 88.7639 30.2119 88.6565C30.2787 88.5474 30.3633 88.4628 30.4659 88.4026C30.57 88.3407 30.6937 88.3098 30.8369 88.3098C30.8695 88.3098 30.9069 88.3139 30.9492 88.322C30.9916 88.3285 31.0209 88.3359 31.0371 88.344ZM32.9927 90.2996C32.9927 90.2345 32.9781 90.1742 32.9488 90.1189C32.9211 90.0619 32.8633 90.0107 32.7754 89.9651C32.6892 89.9179 32.5589 89.8772 32.3848 89.843C32.2383 89.8121 32.1057 89.7755 31.9868 89.7332C31.8697 89.6908 31.7696 89.6396 31.6866 89.5793C31.6052 89.5191 31.5425 89.4483 31.4986 89.3669C31.4546 89.2856 31.4326 89.1903 31.4326 89.0813C31.4326 88.9771 31.4554 88.8787 31.501 88.7859C31.5482 88.6931 31.6141 88.6109 31.6988 88.5393C31.785 88.4677 31.8884 88.4115 32.0088 88.3708C32.1293 88.3302 32.2635 88.3098 32.4117 88.3098C32.6232 88.3098 32.8039 88.3472 32.9536 88.4221C33.1034 88.497 33.2181 88.5971 33.2979 88.7224C33.3776 88.8461 33.4175 88.9836 33.4175 89.135H32.9659C32.9659 89.0618 32.9439 88.991 32.8999 88.9226C32.8576 88.8526 32.795 88.7948 32.7119 88.7493C32.6306 88.7037 32.5305 88.6809 32.4117 88.6809C32.2863 88.6809 32.1846 88.7004 32.1065 88.7395C32.03 88.7769 31.9738 88.825 31.938 88.8835C31.9038 88.9421 31.8867 89.004 31.8867 89.0691C31.8867 89.1179 31.8949 89.1619 31.9112 89.2009C31.9291 89.2384 31.96 89.2734 32.0039 89.3059C32.0479 89.3368 32.1097 89.3661 32.1895 89.3938C32.2692 89.4215 32.371 89.4491 32.4947 89.4768C32.7111 89.5256 32.8894 89.5842 33.0293 89.6526C33.1693 89.7209 33.2735 89.8048 33.3418 89.9041C33.4102 90.0033 33.4444 90.1238 33.4444 90.2654C33.4444 90.3809 33.42 90.4867 33.3711 90.5828C33.3239 90.6788 33.2548 90.7618 33.1636 90.8318C33.0741 90.9001 32.9667 90.9539 32.8413 90.9929C32.7176 91.0304 32.5785 91.0491 32.4239 91.0491C32.1911 91.0491 31.9942 91.0076 31.833 90.9246C31.6719 90.8416 31.5498 90.7341 31.4668 90.6023C31.3838 90.4705 31.3423 90.3313 31.3423 90.1848H31.7964C31.8029 90.3085 31.8387 90.407 31.9038 90.4802C31.9689 90.5518 32.0487 90.6031 32.1431 90.634C32.2375 90.6633 32.3311 90.678 32.4239 90.678C32.5476 90.678 32.6509 90.6617 32.7339 90.6292C32.8186 90.5966 32.8828 90.5518 32.9268 90.4949C32.9707 90.4379 32.9927 90.3728 32.9927 90.2996ZM36.8355 90.5486V89.1887C36.8355 89.0846 36.8143 88.9942 36.772 88.9177C36.7313 88.8396 36.6695 88.7794 36.5865 88.7371C36.5034 88.6947 36.4009 88.6736 36.2788 88.6736C36.1649 88.6736 36.0648 88.6931 35.9785 88.7322C35.8939 88.7712 35.8272 88.8225 35.7784 88.886C35.7312 88.9495 35.7076 89.0178 35.7076 89.0911H35.2559C35.2559 88.9967 35.2803 88.9031 35.3291 88.8103C35.378 88.7175 35.4479 88.6337 35.5391 88.5588C35.6319 88.4823 35.7425 88.4221 35.8711 88.3782C36.0013 88.3326 36.1462 88.3098 36.3057 88.3098C36.4978 88.3098 36.667 88.3424 36.8135 88.4075C36.9616 88.4726 37.0772 88.571 37.1602 88.7029C37.2448 88.8331 37.2871 88.9967 37.2871 89.1936V90.4241C37.2871 90.512 37.2945 90.6056 37.3091 90.7048C37.3254 90.8041 37.349 90.8896 37.3799 90.9612V91.0002H36.9087C36.8859 90.9482 36.868 90.879 36.855 90.7927C36.842 90.7048 36.8355 90.6235 36.8355 90.5486ZM36.9136 89.3987L36.9185 89.7161H36.4619C36.3334 89.7161 36.2186 89.7266 36.1177 89.7478C36.0168 89.7673 35.9322 89.7974 35.8638 89.8381C35.7954 89.8788 35.7434 89.9301 35.7076 89.9919C35.6717 90.0522 35.6538 90.123 35.6538 90.2043C35.6538 90.2874 35.6726 90.363 35.71 90.4314C35.7474 90.4998 35.8036 90.5543 35.8784 90.595C35.9549 90.634 36.0485 90.6536 36.1592 90.6536C36.2976 90.6536 36.4196 90.6243 36.5254 90.5657C36.6312 90.5071 36.715 90.4355 36.7769 90.3508C36.8404 90.2662 36.8745 90.184 36.8794 90.1042L37.0723 90.3215C37.0609 90.3899 37.03 90.4656 36.9795 90.5486C36.9291 90.6316 36.8615 90.7113 36.7769 90.7878C36.6939 90.8627 36.5946 90.9254 36.479 90.9758C36.3651 91.0247 36.2365 91.0491 36.0933 91.0491C35.9143 91.0491 35.7572 91.0141 35.6221 90.9441C35.4886 90.8741 35.3845 90.7805 35.3096 90.6633C35.2364 90.5445 35.1997 90.4119 35.1997 90.2654C35.1997 90.1238 35.2274 89.9993 35.2827 89.8918C35.3381 89.7828 35.4178 89.6925 35.522 89.6208C35.6262 89.5476 35.7515 89.4923 35.898 89.4548C36.0445 89.4174 36.208 89.3987 36.3887 89.3987H36.9136ZM39.709 88.3586H40.1192V90.9441C40.1192 91.1768 40.072 91.3754 39.9776 91.5398C39.8832 91.7042 39.7513 91.8287 39.5821 91.9133C39.4144 91.9996 39.2207 92.0427 39.001 92.0427C38.9099 92.0427 38.8024 92.0281 38.6787 91.9988C38.5567 91.9711 38.4362 91.9231 38.3174 91.8547C38.2002 91.788 38.1018 91.6977 38.022 91.5837L38.2588 91.3152C38.3695 91.4486 38.4851 91.5414 38.6055 91.5935C38.7276 91.6456 38.848 91.6716 38.9668 91.6716C39.1101 91.6716 39.2338 91.6448 39.3379 91.5911C39.4421 91.5374 39.5227 91.4576 39.5796 91.3518C39.6382 91.2476 39.6675 91.1191 39.6675 90.9661V88.9397L39.709 88.3586ZM37.8902 89.7087V89.6575C37.8902 89.4556 37.9138 89.2725 37.961 89.1082C38.0098 88.9421 38.079 88.7997 38.1685 88.6809C38.2596 88.5621 38.3695 88.4709 38.4981 88.4075C38.6267 88.3424 38.7715 88.3098 38.9326 88.3098C39.0987 88.3098 39.2435 88.3391 39.3672 88.3977C39.4925 88.4547 39.5983 88.5385 39.6846 88.6492C39.7725 88.7582 39.8417 88.8901 39.8921 89.0447C39.9426 89.1993 39.9776 89.3743 39.9971 89.5696V89.7942C39.9792 89.9879 39.9442 90.162 39.8921 90.3167C39.8417 90.4713 39.7725 90.6031 39.6846 90.7122C39.5983 90.8212 39.4925 90.905 39.3672 90.9636C39.2419 91.0206 39.0954 91.0491 38.9278 91.0491C38.7699 91.0491 38.6267 91.0157 38.4981 90.949C38.3711 90.8822 38.2621 90.7887 38.1709 90.6682C38.0798 90.5478 38.0098 90.4062 37.961 90.2434C37.9138 90.079 37.8902 89.9008 37.8902 89.7087ZM38.3418 89.6575V89.7087C38.3418 89.8406 38.3548 89.9643 38.3809 90.0798C38.4086 90.1954 38.4501 90.2971 38.5054 90.385C38.5624 90.4729 38.6348 90.5421 38.7227 90.5925C38.8106 90.6414 38.9156 90.6658 39.0376 90.6658C39.1874 90.6658 39.3111 90.634 39.4087 90.5706C39.5064 90.5071 39.5837 90.4233 39.6407 90.3191C39.6992 90.2149 39.7448 90.1018 39.7774 89.9797V89.3914C39.7595 89.3018 39.7318 89.2156 39.6944 89.1326C39.6586 89.0479 39.6114 88.9731 39.5528 88.908C39.4958 88.8412 39.425 88.7883 39.3404 88.7493C39.2557 88.7102 39.1564 88.6907 39.0425 88.6907C38.9188 88.6907 38.8122 88.7167 38.7227 88.7688C38.6348 88.8193 38.5624 88.8892 38.5054 88.9788C38.4501 89.0667 38.4086 89.1692 38.3809 89.2864C38.3548 89.4019 38.3418 89.5256 38.3418 89.6575ZM40.6856 89.7087V89.6526C40.6856 89.4622 40.7132 89.2856 40.7686 89.1228C40.8239 88.9584 40.9037 88.816 41.0078 88.6956C41.112 88.5735 41.2381 88.4791 41.3863 88.4124C41.5344 88.344 41.7004 88.3098 41.8843 88.3098C42.0699 88.3098 42.2367 88.344 42.3848 88.4124C42.5345 88.4791 42.6615 88.5735 42.7657 88.6956C42.8714 88.816 42.952 88.9584 43.0074 89.1228C43.0627 89.2856 43.0904 89.4622 43.0904 89.6526V89.7087C43.0904 89.8992 43.0627 90.0758 43.0074 90.2385C42.952 90.4013 42.8714 90.5437 42.7657 90.6658C42.6615 90.7862 42.5353 90.8806 42.3872 90.949C42.2408 91.0157 42.0747 91.0491 41.8892 91.0491C41.7036 91.0491 41.5368 91.0157 41.3887 90.949C41.2406 90.8806 41.1136 90.7862 41.0078 90.6658C40.9037 90.5437 40.8239 90.4013 40.7686 90.2385C40.7132 90.0758 40.6856 89.8992 40.6856 89.7087ZM41.1372 89.6526V89.7087C41.1372 89.8406 41.1527 89.9651 41.1836 90.0823C41.2145 90.1978 41.2609 90.3004 41.3228 90.3899C41.3863 90.4794 41.4652 90.5502 41.5596 90.6023C41.654 90.6528 41.7639 90.678 41.8892 90.678C42.0129 90.678 42.1211 90.6528 42.2139 90.6023C42.3083 90.5502 42.3864 90.4794 42.4483 90.3899C42.5101 90.3004 42.5565 90.1978 42.5874 90.0823C42.62 89.9651 42.6363 89.8406 42.6363 89.7087V89.6526C42.6363 89.5224 42.62 89.3995 42.5874 89.2839C42.5565 89.1667 42.5093 89.0634 42.4458 88.9739C42.384 88.8827 42.3059 88.8111 42.2115 88.759C42.1187 88.7069 42.0096 88.6809 41.8843 88.6809C41.7606 88.6809 41.6516 88.7069 41.5572 88.759C41.4644 88.8111 41.3863 88.8827 41.3228 88.9739C41.2609 89.0634 41.2145 89.1667 41.1836 89.2839C41.1527 89.3995 41.1372 89.5224 41.1372 89.6526ZM44.6968 89.5549V89.5793C44.6968 89.9358 44.6569 90.2581 44.5772 90.5461C44.4974 90.8342 44.3957 91.0857 44.272 91.3005C44.1483 91.517 44.0181 91.696 43.8814 91.8376C43.7447 91.9809 43.6185 92.0842 43.503 92.1477L43.4077 91.8743C43.5038 91.801 43.6006 91.6985 43.6983 91.5667C43.7959 91.4364 43.8863 91.2753 43.9693 91.0833C44.0523 90.8928 44.119 90.6731 44.1695 90.4241C44.2199 90.1734 44.2451 89.8935 44.2451 89.5842V89.55C44.2451 89.2408 44.2183 88.9617 44.1646 88.7126C44.1109 88.462 44.0409 88.2415 43.9546 88.051C43.87 87.8606 43.7788 87.7003 43.6812 87.5701C43.5852 87.4382 43.494 87.3365 43.4077 87.2649L43.503 86.989C43.6185 87.0525 43.7447 87.1558 43.8814 87.2991C44.0181 87.4407 44.1483 87.6197 44.272 87.8362C44.3957 88.0527 44.4974 88.3049 44.5772 88.593C44.6569 88.8795 44.6968 89.2001 44.6968 89.5549Z" fill="black"/>
<path d="M256.666 82.6238V80.7139" stroke="black"/>
<path d="M251.557 84.4456V88.0002H251.083L249.294 85.2585V88.0002H248.822V84.4456H249.294L251.09 87.1946V84.4456H251.557ZM252.204 86.7087V86.6526C252.204 86.4622 252.231 86.2856 252.287 86.1228C252.342 85.9584 252.422 85.816 252.526 85.6956C252.63 85.5735 252.756 85.4791 252.904 85.4124C253.052 85.344 253.218 85.3098 253.402 85.3098C253.588 85.3098 253.755 85.344 253.903 85.4124C254.053 85.4791 254.18 85.5735 254.284 85.6956C254.39 85.816 254.47 85.9584 254.525 86.1228C254.581 86.2856 254.608 86.4622 254.608 86.6526V86.7087C254.608 86.8992 254.581 87.0758 254.525 87.2385C254.47 87.4013 254.39 87.5437 254.284 87.6658C254.18 87.7862 254.053 87.8806 253.905 87.949C253.759 88.0157 253.593 88.0491 253.407 88.0491C253.222 88.0491 253.055 88.0157 252.907 87.949C252.759 87.8806 252.632 87.7862 252.526 87.6658C252.422 87.5437 252.342 87.4013 252.287 87.2385C252.231 87.0758 252.204 86.8992 252.204 86.7087ZM252.655 86.6526V86.7087C252.655 86.8406 252.671 86.9651 252.702 87.0823C252.733 87.1978 252.779 87.3004 252.841 87.3899C252.904 87.4794 252.983 87.5502 253.078 87.6023C253.172 87.6528 253.282 87.678 253.407 87.678C253.531 87.678 253.639 87.6528 253.732 87.6023C253.826 87.5502 253.905 87.4794 253.966 87.3899C254.028 87.3004 254.075 87.1978 254.106 87.0823C254.138 86.9651 254.154 86.8406 254.154 86.7087V86.6526C254.154 86.5224 254.138 86.3995 254.106 86.2839C254.075 86.1667 254.027 86.0634 253.964 85.9739C253.902 85.8827 253.824 85.8111 253.73 85.759C253.637 85.7069 253.528 85.6809 253.402 85.6809C253.279 85.6809 253.17 85.7069 253.075 85.759C252.982 85.8111 252.904 85.8827 252.841 85.9739C252.779 86.0634 252.733 86.1667 252.702 86.2839C252.671 86.3995 252.655 86.5224 252.655 86.6526ZM255.844 87.5315L256.523 85.3586H256.82L256.762 85.7908L256.071 88.0002H255.78L255.844 87.5315ZM255.387 85.3586L255.966 87.5559L256.007 88.0002H255.702L254.936 85.3586H255.387ZM257.47 87.5388L258.022 85.3586H258.471L257.704 88.0002H257.401L257.47 87.5388ZM256.886 85.3586L257.55 87.4949L257.626 88.0002H257.338L256.627 85.7859L256.569 85.3586H256.886Z" fill="black"/>
<path d="M27.3996 29.7834V80.714" stroke="black"/>
<path d="M25.0992 80.7139H27.3996" stroke="black"/>
<path d="M22.8966 79.8335V80.3755C22.8966 80.6668 22.8706 80.9126 22.8185 81.1128C22.7664 81.313 22.6916 81.4741 22.5939 81.5962C22.4962 81.7183 22.3782 81.807 22.2399 81.8623C22.1032 81.916 21.9486 81.9429 21.776 81.9429C21.6393 81.9429 21.5132 81.9258 21.3976 81.8916C21.2821 81.8574 21.1779 81.8029 21.0851 81.728C20.994 81.6515 20.9158 81.5522 20.8507 81.4302C20.7856 81.3081 20.736 81.16 20.7018 80.9858C20.6676 80.8117 20.6505 80.6082 20.6505 80.3755V79.8335C20.6505 79.5422 20.6766 79.298 20.7287 79.1011C20.7824 78.9041 20.8581 78.7463 20.9557 78.6274C21.0534 78.507 21.1706 78.4207 21.3073 78.3687C21.4456 78.3166 21.6003 78.2905 21.7711 78.2905C21.9095 78.2905 22.0364 78.3076 22.152 78.3418C22.2692 78.3743 22.3734 78.4272 22.4645 78.5005C22.5557 78.5721 22.633 78.6681 22.6964 78.7886C22.7615 78.9074 22.8112 79.0531 22.8454 79.2256C22.8795 79.3981 22.8966 79.6007 22.8966 79.8335ZM22.4425 80.4487V79.7578C22.4425 79.5983 22.4328 79.4583 22.4132 79.3379C22.3953 79.2158 22.3685 79.1117 22.3327 79.0254C22.2969 78.9391 22.2513 78.8691 22.196 78.8154C22.1422 78.7617 22.0796 78.7227 22.008 78.6982C21.938 78.6722 21.859 78.6592 21.7711 78.6592C21.6637 78.6592 21.5685 78.6795 21.4855 78.7202C21.4025 78.7593 21.3325 78.8219 21.2755 78.9082C21.2202 78.9945 21.1779 79.1076 21.1486 79.2476C21.1193 79.3875 21.1046 79.5576 21.1046 79.7578V80.4487C21.1046 80.6082 21.1136 80.749 21.1315 80.8711C21.151 80.9932 21.1795 81.099 21.2169 81.1885C21.2544 81.2764 21.3 81.3488 21.3537 81.4058C21.4074 81.4627 21.4692 81.505 21.5392 81.5327C21.6108 81.5588 21.6898 81.5718 21.776 81.5718C21.8867 81.5718 21.9836 81.5506 22.0666 81.5083C22.1496 81.466 22.2187 81.4001 22.2741 81.3105C22.331 81.2194 22.3734 81.103 22.401 80.9614C22.4287 80.8182 22.4425 80.6473 22.4425 80.4487Z" fill="black"/>
<path d="M25.0992 67.9812H27.3996" stroke="black"/>
<path d="M18.5119 67.1619H18.8341C18.992 67.1619 19.1222 67.1358 19.2248 67.0837C19.3289 67.03 19.4062 66.9576 19.4567 66.8665C19.5088 66.7737 19.5348 66.6695 19.5348 66.554C19.5348 66.4172 19.512 66.3025 19.4665 66.2097C19.4209 66.1169 19.3525 66.047 19.2614 65.9998C19.1702 65.9526 19.0547 65.929 18.9147 65.929C18.7878 65.929 18.6754 65.9542 18.5778 66.0046C18.4818 66.0535 18.4061 66.1235 18.3507 66.2146C18.297 66.3057 18.2702 66.4132 18.2702 66.5369H17.8185C17.8185 66.3562 17.8641 66.1918 17.9552 66.0437C18.0464 65.8956 18.1741 65.7776 18.3385 65.6897C18.5045 65.6018 18.6966 65.5579 18.9147 65.5579C19.1295 65.5579 19.3175 65.5961 19.4787 65.6726C19.6398 65.7475 19.7651 65.8598 19.8546 66.0095C19.9442 66.1576 19.9889 66.3424 19.9889 66.5637C19.9889 66.6532 19.9678 66.7493 19.9254 66.8518C19.8848 66.9527 19.8205 67.0471 19.7326 67.135C19.6463 67.2229 19.534 67.2953 19.3957 67.3523C19.2573 67.4076 19.0913 67.4353 18.8976 67.4353H18.5119V67.1619ZM18.5119 67.533V67.262H18.8976C19.1239 67.262 19.311 67.2888 19.4591 67.3425C19.6072 67.3962 19.7236 67.4679 19.8083 67.5574C19.8945 67.6469 19.9547 67.7454 19.9889 67.8528C20.0247 67.9586 20.0426 68.0644 20.0426 68.1702C20.0426 68.3362 20.0142 68.4835 19.9572 68.6121C19.9018 68.7406 19.8229 68.8497 19.7204 68.9392C19.6195 69.0287 19.5006 69.0963 19.3639 69.1418C19.2272 69.1874 19.0783 69.2102 18.9171 69.2102C18.7625 69.2102 18.6169 69.1882 18.4801 69.1443C18.345 69.1003 18.2254 69.0369 18.1212 68.9539C18.0171 68.8692 17.9357 68.7659 17.8771 68.6438C17.8185 68.5201 17.7892 68.3793 17.7892 68.2214H18.2409C18.2409 68.3451 18.2677 68.4534 18.3214 68.5461C18.3768 68.6389 18.4549 68.7113 18.5558 68.7634C18.6584 68.8139 18.7788 68.8391 18.9171 68.8391C19.0555 68.8391 19.1743 68.8155 19.2736 68.7683C19.3745 68.7195 19.4518 68.6462 19.5055 68.5486C19.5609 68.4509 19.5885 68.328 19.5885 68.1799C19.5885 68.0318 19.5576 67.9106 19.4958 67.8162C19.4339 67.7201 19.346 67.6493 19.2321 67.6038C19.1198 67.5566 18.9871 67.533 18.8341 67.533H18.5119ZM22.8966 67.1008V67.6428C22.8966 67.9342 22.8706 68.1799 22.8185 68.3801C22.7664 68.5803 22.6916 68.7415 22.5939 68.8635C22.4962 68.9856 22.3782 69.0743 22.2399 69.1296C22.1032 69.1833 21.9486 69.2102 21.776 69.2102C21.6393 69.2102 21.5132 69.1931 21.3976 69.1589C21.2821 69.1248 21.1779 69.0702 21.0851 68.9954C20.994 68.9189 20.9158 68.8196 20.8507 68.6975C20.7856 68.5754 20.736 68.4273 20.7018 68.2532C20.6676 68.079 20.6505 67.8756 20.6505 67.6428V67.1008C20.6505 66.8095 20.6766 66.5653 20.7287 66.3684C20.7824 66.1715 20.8581 66.0136 20.9557 65.8948C21.0534 65.7743 21.1706 65.6881 21.3073 65.636C21.4456 65.5839 21.6003 65.5579 21.7711 65.5579C21.9095 65.5579 22.0364 65.575 22.152 65.6091C22.2692 65.6417 22.3734 65.6946 22.4645 65.7678C22.5557 65.8394 22.633 65.9355 22.6964 66.0559C22.7615 66.1747 22.8112 66.3204 22.8454 66.4929C22.8795 66.6654 22.8966 66.8681 22.8966 67.1008ZM22.4425 67.7161V67.0251C22.4425 66.8656 22.4328 66.7257 22.4132 66.6052C22.3953 66.4832 22.3685 66.379 22.3327 66.2927C22.2969 66.2065 22.2513 66.1365 22.196 66.0828C22.1422 66.0291 22.0796 65.99 22.008 65.9656C21.938 65.9395 21.859 65.9265 21.7711 65.9265C21.6637 65.9265 21.5685 65.9469 21.4855 65.9875C21.4025 66.0266 21.3325 66.0893 21.2755 66.1755C21.2202 66.2618 21.1779 66.3749 21.1486 66.5149C21.1193 66.6549 21.1046 66.825 21.1046 67.0251V67.7161C21.1046 67.8756 21.1136 68.0164 21.1315 68.1384C21.151 68.2605 21.1795 68.3663 21.217 68.4558C21.2544 68.5437 21.3 68.6161 21.3537 68.6731C21.4074 68.7301 21.4692 68.7724 21.5392 68.8C21.6108 68.8261 21.6898 68.8391 21.776 68.8391C21.8867 68.8391 21.9836 68.818 22.0666 68.7756C22.1496 68.7333 22.2187 68.6674 22.2741 68.5779C22.331 68.4867 22.3734 68.3704 22.401 68.2288C22.4287 68.0855 22.4425 67.9146 22.4425 67.7161Z" fill="black"/>
<path d="M25.0992 55.2488H27.3996" stroke="black"/>
<path d="M19.5861 52.8694H19.6252V53.2527H19.5861C19.3468 53.2527 19.1466 53.2917 18.9855 53.3699C18.8244 53.4464 18.6966 53.5497 18.6022 53.6799C18.5078 53.8085 18.4394 53.9534 18.3971 54.1145C18.3564 54.2756 18.3361 54.4392 18.3361 54.6052V55.1277C18.3361 55.2856 18.3548 55.4255 18.3922 55.5476C18.4297 55.6681 18.481 55.7698 18.5461 55.8528C18.6112 55.9358 18.6844 55.9985 18.7658 56.0408C18.8488 56.0831 18.9351 56.1042 19.0246 56.1042C19.1287 56.1042 19.2215 56.0847 19.3029 56.0457C19.3843 56.005 19.4526 55.9488 19.508 55.8772C19.5649 55.804 19.6081 55.7177 19.6374 55.6184C19.6667 55.5191 19.6813 55.4101 19.6813 55.2913C19.6813 55.1855 19.6683 55.0837 19.6422 54.9861C19.6162 54.8868 19.5763 54.7989 19.5226 54.7224C19.4689 54.6443 19.4014 54.5833 19.32 54.5393C19.2402 54.4937 19.145 54.4709 19.0343 54.4709C18.909 54.4709 18.7918 54.5019 18.6828 54.5637C18.5754 54.6239 18.4866 54.7037 18.4167 54.803C18.3483 54.9006 18.3092 55.0072 18.2995 55.1228L18.0602 55.1204C18.083 54.9381 18.1253 54.7826 18.1872 54.6541C18.2506 54.5238 18.3288 54.4181 18.4215 54.3367C18.5159 54.2537 18.6209 54.1934 18.7365 54.156C18.8537 54.1169 18.9774 54.0974 19.1076 54.0974C19.285 54.0974 19.438 54.1308 19.5666 54.1975C19.6951 54.2642 19.8009 54.3538 19.8839 54.4661C19.967 54.5767 20.028 54.7021 20.0671 54.842C20.1077 54.9804 20.1281 55.1228 20.1281 55.2693C20.1281 55.4369 20.1045 55.594 20.0573 55.7405C20.0101 55.887 19.9393 56.0155 19.8449 56.1262C19.7521 56.2369 19.6374 56.3232 19.5006 56.385C19.3639 56.4469 19.2052 56.4778 19.0246 56.4778C18.8325 56.4778 18.6649 56.4387 18.5216 56.3606C18.3784 56.2808 18.2596 56.175 18.1652 56.0432C18.0708 55.9114 18 55.7649 17.9528 55.6038C17.9056 55.4426 17.882 55.2791 17.882 55.113V54.9006C17.882 54.65 17.9072 54.4042 17.9577 54.1633C18.0081 53.9224 18.0952 53.7043 18.2189 53.509C18.3442 53.3137 18.5176 53.1583 18.7389 53.0427C18.9603 52.9272 19.2427 52.8694 19.5861 52.8694ZM22.8966 54.3684V54.9104C22.8966 55.2017 22.8706 55.4475 22.8185 55.6477C22.7664 55.8479 22.6916 56.009 22.5939 56.1311C22.4963 56.2532 22.3783 56.3419 22.2399 56.3972C22.1032 56.4509 21.9486 56.4778 21.776 56.4778C21.6393 56.4778 21.5132 56.4607 21.3976 56.4265C21.2821 56.3923 21.1779 56.3378 21.0851 56.2629C20.994 56.1864 20.9158 56.0872 20.8507 55.9651C20.7856 55.843 20.736 55.6949 20.7018 55.5208C20.6676 55.3466 20.6505 55.1431 20.6505 54.9104V54.3684C20.6505 54.0771 20.6766 53.8329 20.7287 53.636C20.7824 53.439 20.8581 53.2812 20.9557 53.1624C21.0534 53.0419 21.1706 52.9556 21.3073 52.9036C21.4456 52.8515 21.6003 52.8254 21.7712 52.8254C21.9095 52.8254 22.0365 52.8425 22.152 52.8767C22.2692 52.9093 22.3734 52.9622 22.4645 53.0354C22.5557 53.107 22.633 53.203 22.6964 53.3235C22.7616 53.4423 22.8112 53.588 22.8454 53.7605C22.8796 53.933 22.8966 54.1357 22.8966 54.3684ZM22.4425 54.9836V54.2927C22.4425 54.1332 22.4328 53.9932 22.4132 53.8728C22.3953 53.7507 22.3685 53.6466 22.3327 53.5603C22.2969 53.474 22.2513 53.4041 22.196 53.3503C22.1422 53.2966 22.0796 53.2576 22.008 53.2332C21.938 53.2071 21.859 53.1941 21.7712 53.1941C21.6637 53.1941 21.5685 53.2144 21.4855 53.2551C21.4025 53.2942 21.3325 53.3569 21.2755 53.4431C21.2202 53.5294 21.1779 53.6425 21.1486 53.7825C21.1193 53.9224 21.1047 54.0925 21.1047 54.2927V54.9836C21.1047 55.1431 21.1136 55.2839 21.1315 55.406C21.151 55.5281 21.1795 55.6339 21.217 55.7234C21.2544 55.8113 21.3 55.8837 21.3537 55.9407C21.4074 55.9976 21.4692 56.04 21.5392 56.0676C21.6108 56.0937 21.6898 56.1067 21.776 56.1067C21.8867 56.1067 21.9836 56.0855 22.0666 56.0432C22.1496 56.0009 22.2187 55.935 22.2741 55.8455C22.3311 55.7543 22.3734 55.6379 22.401 55.4963C22.4287 55.3531 22.4425 55.1822 22.4425 54.9836Z" fill="black"/>
<path d="M25.0992 42.5161H27.3996" stroke="black"/>
<path d="M18.3019 43.3179H18.3483C18.6087 43.3179 18.8203 43.2812 18.9831 43.208C19.1458 43.1348 19.2712 43.0363 19.359 42.9126C19.4469 42.7889 19.5072 42.6497 19.5397 42.4951C19.5723 42.3389 19.5885 42.1785 19.5885 42.0142V41.4697C19.5885 41.3086 19.5698 41.1654 19.5324 41.04C19.4966 40.9147 19.4461 40.8097 19.381 40.7251C19.3175 40.6405 19.2451 40.5762 19.1637 40.5322C19.0824 40.4883 18.9961 40.4663 18.9049 40.4663C18.8008 40.4663 18.7072 40.4875 18.6242 40.5298C18.5428 40.5705 18.4736 40.6283 18.4167 40.7031C18.3613 40.778 18.319 40.8659 18.2897 40.9668C18.2604 41.0677 18.2458 41.1776 18.2458 41.2964C18.2458 41.4022 18.2588 41.5047 18.2848 41.604C18.3109 41.7033 18.3507 41.7928 18.4045 41.8726C18.4582 41.9523 18.5249 42.0158 18.6047 42.063C18.686 42.1086 18.7812 42.1313 18.8903 42.1313C18.9912 42.1313 19.0856 42.1118 19.1735 42.0728C19.263 42.0321 19.342 41.9775 19.4103 41.9092C19.4803 41.8392 19.5356 41.7603 19.5763 41.6724C19.6186 41.5845 19.6431 41.4925 19.6496 41.3965H19.8644C19.8644 41.5316 19.8376 41.665 19.7838 41.7969C19.7318 41.9271 19.6585 42.0459 19.5641 42.1533C19.4697 42.2607 19.359 42.347 19.2321 42.4121C19.1051 42.4756 18.9668 42.5073 18.8171 42.5073C18.6413 42.5073 18.4891 42.4731 18.3605 42.4048C18.2319 42.3364 18.1261 42.2453 18.0431 42.1313C17.9617 42.0174 17.9007 41.8905 17.86 41.7505C17.821 41.6089 17.8014 41.4657 17.8014 41.3208C17.8014 41.1515 17.825 40.9928 17.8722 40.8447C17.9194 40.6966 17.9894 40.5664 18.0822 40.4541C18.175 40.3402 18.2897 40.2515 18.4264 40.188C18.5648 40.1245 18.7243 40.0928 18.9049 40.0928C19.1084 40.0928 19.2817 40.1335 19.425 40.2148C19.5682 40.2962 19.6846 40.4053 19.7741 40.542C19.8652 40.6787 19.932 40.8325 19.9743 41.0034C20.0166 41.1743 20.0378 41.3501 20.0378 41.5308V41.6943C20.0378 41.8783 20.0255 42.0654 20.0011 42.2559C19.9783 42.4447 19.9336 42.6253 19.8669 42.7979C19.8018 42.9704 19.7065 43.125 19.5812 43.2617C19.4559 43.3968 19.2923 43.5042 19.0905 43.584C18.8903 43.6621 18.6429 43.7012 18.3483 43.7012H18.3019V43.3179ZM22.8966 41.6357V42.1777C22.8966 42.4691 22.8706 42.7148 22.8185 42.915C22.7664 43.1152 22.6916 43.2764 22.5939 43.3984C22.4963 43.5205 22.3783 43.6092 22.2399 43.6646C22.1032 43.7183 21.9486 43.7451 21.776 43.7451C21.6393 43.7451 21.5132 43.728 21.3976 43.6938C21.2821 43.6597 21.1779 43.6051 21.0851 43.5303C20.994 43.4538 20.9158 43.3545 20.8507 43.2324C20.7856 43.1104 20.736 42.9622 20.7018 42.7881C20.6676 42.6139 20.6505 42.4105 20.6505 42.1777V41.6357C20.6505 41.3444 20.6766 41.1003 20.7287 40.9033C20.7824 40.7064 20.8581 40.5485 20.9557 40.4297C21.0534 40.3092 21.1706 40.223 21.3073 40.1709C21.4456 40.1188 21.6003 40.0928 21.7712 40.0928C21.9095 40.0928 22.0365 40.1099 22.152 40.144C22.2692 40.1766 22.3734 40.2295 22.4645 40.3027C22.5557 40.3743 22.633 40.4704 22.6964 40.5908C22.7616 40.7096 22.8112 40.8553 22.8454 41.0278C22.8796 41.2004 22.8966 41.403 22.8966 41.6357ZM22.4425 42.251V41.5601C22.4425 41.4006 22.4328 41.2606 22.4132 41.1401C22.3953 41.0181 22.3685 40.9139 22.3327 40.8276C22.2969 40.7414 22.2513 40.6714 22.196 40.6177C22.1422 40.564 22.0796 40.5249 22.008 40.5005C21.938 40.4744 21.859 40.4614 21.7712 40.4614C21.6637 40.4614 21.5685 40.4818 21.4855 40.5225C21.4025 40.5615 21.3325 40.6242 21.2755 40.7104C21.2202 40.7967 21.1779 40.9098 21.1486 41.0498C21.1193 41.1898 21.1047 41.3599 21.1047 41.5601V42.251C21.1047 42.4105 21.1136 42.5513 21.1315 42.6733C21.151 42.7954 21.1795 42.9012 21.217 42.9907C21.2544 43.0786 21.3 43.151 21.3537 43.208C21.4074 43.265 21.4692 43.3073 21.5392 43.335C21.6108 43.361 21.6898 43.374 21.776 43.374C21.8867 43.374 21.9836 43.3529 22.0666 43.3105C22.1496 43.2682 22.2187 43.2023 22.2741 43.1128C22.3311 43.0216 22.3734 42.9053 22.401 42.7637C22.4287 42.6204 22.4425 42.4495 22.4425 42.251Z" fill="black"/>
<path d="M25.0992 29.7834H27.3996" stroke="black"/>
<path d="M16.5246 28.6626V32.2368H16.0729V29.2266L15.1623 29.5586V29.1509L16.4538 28.6626H16.5246ZM18.424 30.5449L18.0627 30.4521L18.2409 28.6821H20.0646V29.0996H18.6242L18.5168 30.0664C18.5819 30.029 18.6641 29.994 18.7633 29.9614C18.8643 29.9289 18.9798 29.9126 19.11 29.9126C19.2744 29.9126 19.4217 29.9411 19.5519 29.998C19.6821 30.0534 19.7928 30.1331 19.8839 30.2373C19.9767 30.3415 20.0475 30.4668 20.0963 30.6133C20.1452 30.7598 20.1696 30.9233 20.1696 31.104C20.1696 31.2749 20.146 31.432 20.0988 31.5752C20.0532 31.7184 19.984 31.8438 19.8913 31.9512C19.7985 32.057 19.6813 32.1392 19.5397 32.1978C19.3997 32.2563 19.2345 32.2856 19.0441 32.2856C18.9009 32.2856 18.765 32.2661 18.6364 32.2271C18.5094 32.1864 18.3955 32.1253 18.2946 32.0439C18.1953 31.9609 18.1139 31.8584 18.0505 31.7363C17.9886 31.6126 17.9495 31.4678 17.9333 31.3018H18.363C18.3825 31.4352 18.4215 31.5475 18.4801 31.6387C18.5387 31.7298 18.6152 31.799 18.7096 31.8462C18.8057 31.8918 18.9172 31.9146 19.0441 31.9146C19.1515 31.9146 19.2467 31.8958 19.3297 31.8584C19.4128 31.821 19.4827 31.7673 19.5397 31.6973C19.5967 31.6273 19.6398 31.5426 19.6691 31.4434C19.7 31.3441 19.7155 31.2326 19.7155 31.1089C19.7155 30.9966 19.7 30.8924 19.6691 30.7964C19.6382 30.7004 19.5918 30.6165 19.5299 30.5449C19.4697 30.4733 19.3957 30.418 19.3078 30.3789C19.2199 30.3382 19.119 30.3179 19.005 30.3179C18.8537 30.3179 18.7389 30.3382 18.6608 30.3789C18.5843 30.4196 18.5054 30.4749 18.424 30.5449ZM22.8966 30.1763V30.7183C22.8966 31.0096 22.8706 31.2554 22.8185 31.4556C22.7664 31.6558 22.6916 31.8169 22.5939 31.939C22.4963 32.061 22.3783 32.1497 22.2399 32.2051C22.1032 32.2588 21.9486 32.2856 21.776 32.2856C21.6393 32.2856 21.5132 32.2686 21.3976 32.2344C21.2821 32.2002 21.1779 32.1457 21.0851 32.0708C20.994 31.9943 20.9158 31.895 20.8507 31.7729C20.7856 31.6509 20.736 31.5028 20.7018 31.3286C20.6676 31.1545 20.6505 30.951 20.6505 30.7183V30.1763C20.6505 29.8849 20.6766 29.6408 20.7287 29.4438C20.7824 29.2469 20.8581 29.089 20.9557 28.9702C21.0534 28.8498 21.1706 28.7635 21.3073 28.7114C21.4456 28.6593 21.6003 28.6333 21.7712 28.6333C21.9095 28.6333 22.0365 28.6504 22.152 28.6846C22.2692 28.7171 22.3734 28.77 22.4645 28.8433C22.5557 28.9149 22.633 29.0109 22.6964 29.1313C22.7616 29.2502 22.8112 29.3958 22.8454 29.5684C22.8796 29.7409 22.8966 29.9435 22.8966 30.1763ZM22.4425 30.7915V30.1006C22.4425 29.9411 22.4328 29.8011 22.4132 29.6807C22.3953 29.5586 22.3685 29.4544 22.3327 29.3682C22.2969 29.2819 22.2513 29.2119 22.196 29.1582C22.1422 29.1045 22.0796 29.0654 22.008 29.041C21.938 29.015 21.859 29.002 21.7712 29.002C21.6637 29.002 21.5685 29.0223 21.4855 29.063C21.4025 29.1021 21.3325 29.1647 21.2755 29.251C21.2202 29.3372 21.1779 29.4504 21.1486 29.5903C21.1193 29.7303 21.1047 29.9004 21.1047 30.1006V30.7915C21.1047 30.951 21.1136 31.0918 21.1315 31.2139C21.151 31.3359 21.1795 31.4417 21.217 31.5312C21.2544 31.6191 21.3 31.6916 21.3537 31.7485C21.4074 31.8055 21.4692 31.8478 21.5392 31.8755C21.6108 31.9015 21.6898 31.9146 21.776 31.9146C21.8867 31.9146 21.9836 31.8934 22.0666 31.8511C22.1496 31.8088 22.2187 31.7428 22.2741 31.6533C22.3311 31.5622 22.3734 31.4458 22.401 31.3042C22.4287 31.161 22.4425 30.9901 22.4425 30.7915Z" fill="black"/>
<path d="M27.3996 80.7139H256.666" stroke="#CCCCCC" stroke-opacity="0.3"/>
<path d="M27.3996 67.9812H256.666" stroke="#CCCCCC" stroke-opacity="0.3"/>
<path d="M27.3996 55.2485H256.666" stroke="#CCCCCC" stroke-opacity="0.3"/>
<path d="M27.3996 42.5159H256.666" stroke="#CCCCCC" stroke-opacity="0.3"/>
<path d="M27.3996 29.7832H256.666" stroke="#CCCCCC" stroke-opacity="0.3"/>
<path d="M27.3996 29.7832V80.7138" stroke="#CCCCCC" stroke-opacity="0.3"/>
<path d="M52.8736 29.7832V80.7138" stroke="#CCCCCC" stroke-opacity="0.3"/>
<path d="M78.3477 29.7832V80.7138" stroke="#CCCCCC" stroke-opacity="0.3"/>
<path d="M103.822 29.7832V80.7138" stroke="#CCCCCC" stroke-opacity="0.3"/>
<path d="M129.296 29.7832V80.7138" stroke="#CCCCCC" stroke-opacity="0.3"/>
<path d="M154.769 29.7832V80.7138" stroke="#CCCCCC" stroke-opacity="0.3"/>
<path d="M180.243 29.7832V80.7138" stroke="#CCCCCC" stroke-opacity="0.3"/>
<path d="M205.717 29.7832V80.7138" stroke="#CCCCCC" stroke-opacity="0.3"/>
<path d="M231.192 29.7832V80.7138" stroke="#CCCCCC" stroke-opacity="0.3"/>
<path d="M256.666 29.7832V80.7138" stroke="#CCCCCC" stroke-opacity="0.3"/>
<path d="M27.3184 79.9714L52.8736 67.5833L78.3476 65.7211L103.822 37.7093L129.296 62.4106L154.77 64.1455L180.244 66.7557L205.718 61.4398L231.192 45.1738L256.013 30.7385" stroke="#9576FA"/>
<path d="M27.3996 80.7034C28.0348 80.7034 28.5497 80.2758 28.5497 79.7484C28.5497 79.221 28.0348 78.7935 27.3996 78.7935C26.7643 78.7935 26.2494 79.221 26.2494 79.7484C26.2494 80.2758 26.7643 80.7034 27.3996 80.7034Z" fill="white" stroke="#8026A5"/>
<path d="M52.8736 68.5383C53.5088 68.5383 54.0238 68.1108 54.0238 67.5834C54.0238 67.056 53.5088 66.6284 52.8736 66.6284C52.2384 66.6284 51.7234 67.056 51.7234 67.5834C51.7234 68.1108 52.2384 68.5383 52.8736 68.5383Z" fill="white" stroke="#8026A5"/>
<path d="M78.3477 66.676C78.9829 66.676 79.4978 66.2485 79.4978 65.7211C79.4978 65.1937 78.9829 64.7661 78.3477 64.7661C77.7125 64.7661 77.1975 65.1937 77.1975 65.7211C77.1975 66.2485 77.7125 66.676 78.3477 66.676Z" fill="white" stroke="#8026A5"/>
<path d="M103.822 38.6643C104.457 38.6643 104.972 38.2367 104.972 37.7093C104.972 37.1819 104.457 36.7544 103.822 36.7544C103.187 36.7544 102.672 37.1819 102.672 37.7093C102.672 38.2367 103.187 38.6643 103.822 38.6643Z" fill="white" stroke="#8026A5"/>
<path d="M129.296 63.3657C129.931 63.3657 130.446 62.9382 130.446 62.4108C130.446 61.8834 129.931 61.4558 129.296 61.4558C128.661 61.4558 128.146 61.8834 128.146 62.4108C128.146 62.9382 128.661 63.3657 129.296 63.3657Z" fill="white" stroke="#8026A5"/>
<path d="M154.769 65.1003C155.405 65.1003 155.92 64.6728 155.92 64.1454C155.92 63.618 155.405 63.1904 154.769 63.1904C154.134 63.1904 153.619 63.618 153.619 64.1454C153.619 64.6728 154.134 65.1003 154.769 65.1003Z" fill="white" stroke="#8026A5"/>
<path d="M180.243 67.7104C180.879 67.7104 181.394 67.2829 181.394 66.7555C181.394 66.2281 180.879 65.8005 180.243 65.8005C179.608 65.8005 179.093 66.2281 179.093 66.7555C179.093 67.2829 179.608 67.7104 180.243 67.7104Z" fill="white" stroke="#8026A5"/>
<path d="M205.717 62.3948C206.353 62.3948 206.868 61.9672 206.868 61.4398C206.868 60.9124 206.353 60.4849 205.717 60.4849C205.082 60.4849 204.567 60.9124 204.567 61.4398C204.567 61.9672 205.082 62.3948 205.717 62.3948Z" fill="white" stroke="#8026A5"/>
<path d="M231.191 46.1291C231.827 46.1291 232.342 45.7016 232.342 45.1742C232.342 44.6468 231.827 44.2192 231.191 44.2192C230.556 44.2192 230.041 44.6468 230.041 45.1742C230.041 45.7016 230.556 46.1291 231.191 46.1291Z" fill="white" stroke="#8026A5"/>
<path d="M256.666 30.9292C257.301 30.9292 257.816 30.5016 257.816 29.9742C257.816 29.4468 257.301 29.0193 256.666 29.0193C256.031 29.0193 255.516 29.4468 255.516 29.9742C255.516 30.5016 256.031 30.9292 256.666 30.9292Z" fill="white" stroke="#8026A5"/>
</g>
<defs>
<clipPath id="clip0_8_1033">
<rect width="256.103" height="63.6632" fill="white" transform="translate(2.47934 28.1917)"/>
</clipPath>
</defs>
</svg>
