<svg width="24" height="25" viewBox="0 0 24 25" fill="none" xmlns="http://www.w3.org/2000/svg">
<circle cx="12" cy="12.5" r="11.25" stroke="#32304D" stroke-width="1.5"/>
<path d="M12.3971 7.88C13.0371 7.88 13.6021 8.005 14.0921 8.255C14.5921 8.505 14.9771 8.865 15.2471 9.335C15.5271 9.795 15.6671 10.33 15.6671 10.94C15.6671 12.02 15.3321 12.815 14.6621 13.325C14.0021 13.825 13.0971 14.075 11.9471 14.075L11.9021 15.725H11.0021L10.9421 13.325H11.3321C12.3621 13.325 13.1721 13.165 13.7621 12.845C14.3621 12.515 14.6621 11.88 14.6621 10.94C14.6621 10.28 14.4521 9.755 14.0321 9.365C13.6221 8.975 13.0771 8.78 12.3971 8.78C11.7171 8.78 11.1771 8.965 10.7771 9.335C10.3771 9.705 10.1771 10.21 10.1771 10.85H9.17211C9.17211 10.25 9.30711 9.73 9.57711 9.29C9.85711 8.84 10.2371 8.495 10.7171 8.255C11.2071 8.005 11.7671 7.88 12.3971 7.88ZM11.4521 18.575C11.2321 18.575 11.0471 18.5 10.8971 18.35C10.7571 18.2 10.6871 18.015 10.6871 17.795C10.6871 17.575 10.7571 17.395 10.8971 17.255C11.0471 17.105 11.2321 17.03 11.4521 17.03C11.6621 17.03 11.8371 17.105 11.9771 17.255C12.1271 17.395 12.2021 17.575 12.2021 17.795C12.2021 18.015 12.1271 18.2 11.9771 18.35C11.8371 18.5 11.6621 18.575 11.4521 18.575Z" fill="#32304D"/>
<path d="M14.0921 8.255L13.9558 8.52224L13.9579 8.52333L14.0921 8.255ZM15.2471 9.335L14.9869 9.48449L14.9908 9.49098L15.2471 9.335ZM14.6621 13.325L14.8433 13.5641L14.8438 13.5637L14.6621 13.325ZM11.9471 14.075V13.775H11.6552L11.6472 14.0668L11.9471 14.075ZM11.9021 15.725V16.025H12.194L12.202 15.7332L11.9021 15.725ZM11.0021 15.725L10.7022 15.7325L10.7095 16.025H11.0021V15.725ZM10.9421 13.325V13.025H10.6345L10.6422 13.3325L10.9421 13.325ZM13.7621 12.845L13.9051 13.1087L13.9067 13.1079L13.7621 12.845ZM14.0321 9.365L13.8253 9.58238L13.828 9.58484L14.0321 9.365ZM10.7771 9.335L10.5734 9.11477L10.7771 9.335ZM10.1771 10.85V11.15H10.4771V10.85H10.1771ZM9.17211 10.85H8.87211V11.15H9.17211V10.85ZM9.57711 9.29L9.32239 9.13151L9.32141 9.13309L9.57711 9.29ZM10.7171 8.255L10.8513 8.52334L10.8535 8.52223L10.7171 8.255ZM10.8971 18.35L10.6777 18.5548L10.685 18.5621L10.8971 18.35ZM11.9771 17.255L11.7578 17.4597L11.7649 17.4673L11.7724 17.4743L11.9771 17.255ZM11.9771 18.35L11.7649 18.1377L11.7578 18.1453L11.9771 18.35ZM12.3971 8.18C12.9975 8.18 13.5144 8.29704 13.9558 8.52223L14.2285 7.98777C13.6898 7.71296 13.0768 7.58 12.3971 7.58V8.18ZM13.9579 8.52333C14.4069 8.74782 14.7473 9.06726 14.987 9.48444L15.5072 9.18556C15.2069 8.66274 14.7773 8.26218 14.2263 7.98667L13.9579 8.52333ZM14.9908 9.49098C15.2386 9.89798 15.3671 10.3775 15.3671 10.94H15.9671C15.9671 10.2825 15.8156 9.69202 15.5034 9.17902L14.9908 9.49098ZM15.3671 10.94C15.3671 11.9554 15.0555 12.6486 14.4804 13.0863L14.8438 13.5637C15.6088 12.9814 15.9671 12.0846 15.9671 10.94H15.3671ZM14.481 13.0859C13.89 13.5336 13.0566 13.775 11.9471 13.775V14.375C13.1376 14.375 14.1143 14.1164 14.8433 13.5641L14.481 13.0859ZM11.6472 14.0668L11.6022 15.7168L12.202 15.7332L12.247 14.0832L11.6472 14.0668ZM11.9021 15.425H11.0021V16.025H11.9021V15.425ZM11.302 15.7175L11.242 13.3175L10.6422 13.3325L10.7022 15.7325L11.302 15.7175ZM10.9421 13.625H11.3321V13.025H10.9421V13.625ZM11.3321 13.625C12.3877 13.625 13.2539 13.4619 13.9051 13.1087L13.6191 12.5813C13.0903 12.8681 12.3365 13.025 11.3321 13.025V13.625ZM13.9067 13.1079C14.6373 12.7061 14.9621 11.9431 14.9621 10.94H14.3621C14.3621 11.8169 14.087 12.3239 13.6175 12.5821L13.9067 13.1079ZM14.9621 10.94C14.9621 10.2104 14.7268 9.60072 14.2362 9.14516L13.828 9.58484C14.1774 9.90928 14.3621 10.3496 14.3621 10.94H14.9621ZM14.2389 9.14763C13.7622 8.69422 13.1376 8.48 12.3971 8.48V9.08C13.0166 9.08 13.482 9.25578 13.8253 9.58237L14.2389 9.14763ZM12.3971 8.48C11.6611 8.48 11.0417 8.68159 10.5734 9.11477L10.9808 9.55523C11.3125 9.24841 11.7731 9.08 12.3971 9.08V8.48ZM10.5734 9.11477C10.1012 9.55153 9.87711 10.1423 9.87711 10.85H10.4771C10.4771 10.2777 10.653 9.85847 10.9808 9.55523L10.5734 9.11477ZM10.1771 10.55H9.17211V11.15H10.1771V10.55ZM9.47211 10.85C9.47211 10.2963 9.59621 9.83247 9.83281 9.4469L9.32141 9.13309C9.01801 9.62753 8.87211 10.2037 8.87211 10.85H9.47211ZM9.83183 9.44849C10.0822 9.04615 10.4202 8.73888 10.8513 8.52333L10.5829 7.98667C10.054 8.25112 9.63205 8.63385 9.32239 9.13151L9.83183 9.44849ZM10.8535 8.52223C11.2955 8.29671 11.8076 8.18 12.3971 8.18V7.58C11.7266 7.58 11.1188 7.71329 10.5808 7.98777L10.8535 8.52223ZM11.4521 18.275C11.3084 18.275 11.2007 18.2293 11.1092 18.1379L10.685 18.5621C10.8935 18.7707 11.1558 18.875 11.4521 18.875V18.275ZM11.1164 18.1453C11.0322 18.0551 10.9871 17.945 10.9871 17.795H10.3871C10.3871 18.085 10.482 18.3449 10.6778 18.5547L11.1164 18.1453ZM10.9871 17.795C10.9871 17.6449 11.032 17.5444 11.1092 17.4671L10.685 17.0429C10.4822 17.2456 10.3871 17.5051 10.3871 17.795H10.9871ZM11.1092 17.4671C11.2007 17.3757 11.3084 17.33 11.4521 17.33V16.73C11.1558 16.73 10.8935 16.8343 10.685 17.0429L11.1092 17.4671ZM11.4521 17.33C11.5812 17.33 11.676 17.3721 11.7578 17.4597L12.1964 17.0503C11.9982 16.8379 11.7431 16.73 11.4521 16.73V17.33ZM11.7724 17.4743C11.8569 17.5532 11.9021 17.6514 11.9021 17.795H12.5021C12.5021 17.4986 12.3973 17.2368 12.1818 17.0357L11.7724 17.4743ZM11.9021 17.795C11.9021 17.9387 11.8564 18.0464 11.765 18.1379L12.1892 18.5621C12.3978 18.3536 12.5021 18.0913 12.5021 17.795H11.9021ZM11.7578 18.1453C11.676 18.2329 11.5812 18.275 11.4521 18.275V18.875C11.7431 18.875 11.9982 18.7671 12.1964 18.5547L11.7578 18.1453Z" fill="#32304D"/>
</svg>
