<svg width="16" height="14" viewBox="0 0 16 14" fill="none" xmlns="http://www.w3.org/2000/svg">
<path d="M7.50415 1.09943C7.62794 0.739605 8.13684 0.739606 8.26063 1.09944L9.69131 5.25799C9.74687 5.41946 9.8988 5.52786 10.0696 5.52786H14.6485C15.0415 5.52786 15.1989 6.03533 14.8748 6.25768L11.2104 8.77209C11.0622 8.87383 11 9.062 11.0585 9.23204L12.4673 13.327C12.5927 13.6916 12.1806 14.0051 11.8628 13.787L8.10871 11.211C7.97234 11.1174 7.79245 11.1174 7.65608 11.211L3.90202 13.787C3.58414 14.0051 3.17205 13.6916 3.29746 13.327L4.70627 9.23204C4.76477 9.062 4.70261 8.87383 4.55434 8.77209L0.889983 6.25768C0.565933 6.03533 0.723298 5.52786 1.1163 5.52786H5.69523C5.86599 5.52786 6.01792 5.41946 6.07347 5.25799L7.50415 1.09943Z" fill="white"/>
</svg>
